M48
; DRILL file {KiCad 8.0.3} date 2024-07-11T16:05:27-0700
; FORMAT={-:-/ absolute / inch / decimal}
; #@! TF.CreationDate,2024-07-11T16:05:27-07:00
; #@! TF.GenerationSoftware,Kicad,Pcbnew,8.0.3
; #@! TF.FileFunction,Plated,1,2,PTH
FMAT,2
INCH
; #@! TA.AperFunction,Plated,PTH,ComponentDrill
T1C0.0300
; #@! TA.AperFunction,Plated,PTH,ComponentDrill
T2C0.0394
; #@! TA.AperFunction,Plated,PTH,ComponentDrill
T3C0.0984
%
G90
G05
T1
X4.2465Y-2.5528
X4.2465Y-2.6528
X4.2465Y-2.7528
X4.2465Y-2.8528
X4.2465Y-2.9528
X4.2465Y-3.0528
X4.2465Y-3.1528
X4.2465Y-3.2528
X4.2465Y-3.3528
X4.2465Y-3.4528
X4.2465Y-3.5528
X4.2465Y-3.6528
X4.2465Y-3.7528
X4.2465Y-3.8528
X4.2465Y-3.9528
X5.3465Y-2.5528
X5.3465Y-2.6528
X5.3465Y-2.7528
X5.3465Y-2.8528
X5.3465Y-2.9528
X5.3465Y-3.0528
X5.3465Y-3.1528
X5.3465Y-3.2528
X5.3465Y-3.3528
X5.3465Y-3.4528
X5.3465Y-3.5528
X5.3465Y-3.6528
X5.3465Y-3.7528
X5.3465Y-3.8528
X5.3465Y-3.9528
T2
X5.5299Y-2.9244
X5.5299Y-3.0244
X5.5299Y-3.1244
X5.5299Y-3.2244
X5.5299Y-3.3244
X5.5299Y-3.4244
X5.5299Y-3.5244
T3
X6.0299Y-2.8244
X6.0299Y-3.6244
M30
