%TF.GenerationSoftware,KiCad,Pcbnew,8.0.3*%
%TF.CreationDate,2024-07-11T16:06:48-07:00*%
%TF.ProjectId,RomiEnvironDetector,526f6d69-456e-4766-9972-6f6e44657465,rev?*%
%TF.SameCoordinates,Original*%
%TF.FileFunction,Legend,Top*%
%TF.FilePolarity,Positive*%
%FSLAX46Y46*%
G04 Gerber Fmt 4.6, Leading zero omitted, Abs format (unit mm)*
G04 Created by KiCad (PCBNEW 8.0.3) date 2024-07-11 16:06:48*
%MOMM*%
%LPD*%
G01*
G04 APERTURE LIST*
%ADD10C,0.100000*%
%ADD11C,0.142240*%
%ADD12C,0.150000*%
%ADD13C,1.524000*%
%ADD14C,1.879600*%
%ADD15C,3.301600*%
G04 APERTURE END LIST*
D10*
X140619047Y-68133609D02*
X140761904Y-68181228D01*
X140761904Y-68181228D02*
X140809523Y-68228847D01*
X140809523Y-68228847D02*
X140857142Y-68324085D01*
X140857142Y-68324085D02*
X140857142Y-68466942D01*
X140857142Y-68466942D02*
X140809523Y-68562180D01*
X140809523Y-68562180D02*
X140761904Y-68609800D01*
X140761904Y-68609800D02*
X140666666Y-68657419D01*
X140666666Y-68657419D02*
X140285714Y-68657419D01*
X140285714Y-68657419D02*
X140285714Y-67657419D01*
X140285714Y-67657419D02*
X140619047Y-67657419D01*
X140619047Y-67657419D02*
X140714285Y-67705038D01*
X140714285Y-67705038D02*
X140761904Y-67752657D01*
X140761904Y-67752657D02*
X140809523Y-67847895D01*
X140809523Y-67847895D02*
X140809523Y-67943133D01*
X140809523Y-67943133D02*
X140761904Y-68038371D01*
X140761904Y-68038371D02*
X140714285Y-68085990D01*
X140714285Y-68085990D02*
X140619047Y-68133609D01*
X140619047Y-68133609D02*
X140285714Y-68133609D01*
X141285714Y-68657419D02*
X141285714Y-67657419D01*
X141285714Y-67657419D02*
X141619047Y-68371704D01*
X141619047Y-68371704D02*
X141952380Y-67657419D01*
X141952380Y-67657419D02*
X141952380Y-68657419D01*
X142428571Y-68133609D02*
X142761904Y-68133609D01*
X142904761Y-68657419D02*
X142428571Y-68657419D01*
X142428571Y-68657419D02*
X142428571Y-67657419D01*
X142428571Y-67657419D02*
X142904761Y-67657419D01*
X143761904Y-67657419D02*
X143571428Y-67657419D01*
X143571428Y-67657419D02*
X143476190Y-67705038D01*
X143476190Y-67705038D02*
X143428571Y-67752657D01*
X143428571Y-67752657D02*
X143333333Y-67895514D01*
X143333333Y-67895514D02*
X143285714Y-68085990D01*
X143285714Y-68085990D02*
X143285714Y-68466942D01*
X143285714Y-68466942D02*
X143333333Y-68562180D01*
X143333333Y-68562180D02*
X143380952Y-68609800D01*
X143380952Y-68609800D02*
X143476190Y-68657419D01*
X143476190Y-68657419D02*
X143666666Y-68657419D01*
X143666666Y-68657419D02*
X143761904Y-68609800D01*
X143761904Y-68609800D02*
X143809523Y-68562180D01*
X143809523Y-68562180D02*
X143857142Y-68466942D01*
X143857142Y-68466942D02*
X143857142Y-68228847D01*
X143857142Y-68228847D02*
X143809523Y-68133609D01*
X143809523Y-68133609D02*
X143761904Y-68085990D01*
X143761904Y-68085990D02*
X143666666Y-68038371D01*
X143666666Y-68038371D02*
X143476190Y-68038371D01*
X143476190Y-68038371D02*
X143380952Y-68085990D01*
X143380952Y-68085990D02*
X143333333Y-68133609D01*
X143333333Y-68133609D02*
X143285714Y-68228847D01*
X144428571Y-68085990D02*
X144333333Y-68038371D01*
X144333333Y-68038371D02*
X144285714Y-67990752D01*
X144285714Y-67990752D02*
X144238095Y-67895514D01*
X144238095Y-67895514D02*
X144238095Y-67847895D01*
X144238095Y-67847895D02*
X144285714Y-67752657D01*
X144285714Y-67752657D02*
X144333333Y-67705038D01*
X144333333Y-67705038D02*
X144428571Y-67657419D01*
X144428571Y-67657419D02*
X144619047Y-67657419D01*
X144619047Y-67657419D02*
X144714285Y-67705038D01*
X144714285Y-67705038D02*
X144761904Y-67752657D01*
X144761904Y-67752657D02*
X144809523Y-67847895D01*
X144809523Y-67847895D02*
X144809523Y-67895514D01*
X144809523Y-67895514D02*
X144761904Y-67990752D01*
X144761904Y-67990752D02*
X144714285Y-68038371D01*
X144714285Y-68038371D02*
X144619047Y-68085990D01*
X144619047Y-68085990D02*
X144428571Y-68085990D01*
X144428571Y-68085990D02*
X144333333Y-68133609D01*
X144333333Y-68133609D02*
X144285714Y-68181228D01*
X144285714Y-68181228D02*
X144238095Y-68276466D01*
X144238095Y-68276466D02*
X144238095Y-68466942D01*
X144238095Y-68466942D02*
X144285714Y-68562180D01*
X144285714Y-68562180D02*
X144333333Y-68609800D01*
X144333333Y-68609800D02*
X144428571Y-68657419D01*
X144428571Y-68657419D02*
X144619047Y-68657419D01*
X144619047Y-68657419D02*
X144714285Y-68609800D01*
X144714285Y-68609800D02*
X144761904Y-68562180D01*
X144761904Y-68562180D02*
X144809523Y-68466942D01*
X144809523Y-68466942D02*
X144809523Y-68276466D01*
X144809523Y-68276466D02*
X144761904Y-68181228D01*
X144761904Y-68181228D02*
X144714285Y-68133609D01*
X144714285Y-68133609D02*
X144619047Y-68085990D01*
X145380952Y-68085990D02*
X145285714Y-68038371D01*
X145285714Y-68038371D02*
X145238095Y-67990752D01*
X145238095Y-67990752D02*
X145190476Y-67895514D01*
X145190476Y-67895514D02*
X145190476Y-67847895D01*
X145190476Y-67847895D02*
X145238095Y-67752657D01*
X145238095Y-67752657D02*
X145285714Y-67705038D01*
X145285714Y-67705038D02*
X145380952Y-67657419D01*
X145380952Y-67657419D02*
X145571428Y-67657419D01*
X145571428Y-67657419D02*
X145666666Y-67705038D01*
X145666666Y-67705038D02*
X145714285Y-67752657D01*
X145714285Y-67752657D02*
X145761904Y-67847895D01*
X145761904Y-67847895D02*
X145761904Y-67895514D01*
X145761904Y-67895514D02*
X145714285Y-67990752D01*
X145714285Y-67990752D02*
X145666666Y-68038371D01*
X145666666Y-68038371D02*
X145571428Y-68085990D01*
X145571428Y-68085990D02*
X145380952Y-68085990D01*
X145380952Y-68085990D02*
X145285714Y-68133609D01*
X145285714Y-68133609D02*
X145238095Y-68181228D01*
X145238095Y-68181228D02*
X145190476Y-68276466D01*
X145190476Y-68276466D02*
X145190476Y-68466942D01*
X145190476Y-68466942D02*
X145238095Y-68562180D01*
X145238095Y-68562180D02*
X145285714Y-68609800D01*
X145285714Y-68609800D02*
X145380952Y-68657419D01*
X145380952Y-68657419D02*
X145571428Y-68657419D01*
X145571428Y-68657419D02*
X145666666Y-68609800D01*
X145666666Y-68609800D02*
X145714285Y-68562180D01*
X145714285Y-68562180D02*
X145761904Y-68466942D01*
X145761904Y-68466942D02*
X145761904Y-68276466D01*
X145761904Y-68276466D02*
X145714285Y-68181228D01*
X145714285Y-68181228D02*
X145666666Y-68133609D01*
X145666666Y-68133609D02*
X145571428Y-68085990D01*
D11*
X141628786Y-86085436D02*
X141587178Y-86210259D01*
X141587178Y-86210259D02*
X141587178Y-86418297D01*
X141587178Y-86418297D02*
X141628786Y-86501512D01*
X141628786Y-86501512D02*
X141670393Y-86543120D01*
X141670393Y-86543120D02*
X141753608Y-86584727D01*
X141753608Y-86584727D02*
X141836824Y-86584727D01*
X141836824Y-86584727D02*
X141920039Y-86543120D01*
X141920039Y-86543120D02*
X141961646Y-86501512D01*
X141961646Y-86501512D02*
X142003254Y-86418297D01*
X142003254Y-86418297D02*
X142044862Y-86251866D01*
X142044862Y-86251866D02*
X142086469Y-86168651D01*
X142086469Y-86168651D02*
X142128077Y-86127044D01*
X142128077Y-86127044D02*
X142211292Y-86085436D01*
X142211292Y-86085436D02*
X142294507Y-86085436D01*
X142294507Y-86085436D02*
X142377723Y-86127044D01*
X142377723Y-86127044D02*
X142419330Y-86168651D01*
X142419330Y-86168651D02*
X142460938Y-86251866D01*
X142460938Y-86251866D02*
X142460938Y-86459905D01*
X142460938Y-86459905D02*
X142419330Y-86584727D01*
X141587178Y-86959196D02*
X142460938Y-86959196D01*
X142460938Y-86959196D02*
X142460938Y-87167234D01*
X142460938Y-87167234D02*
X142419330Y-87292057D01*
X142419330Y-87292057D02*
X142336115Y-87375272D01*
X142336115Y-87375272D02*
X142252900Y-87416879D01*
X142252900Y-87416879D02*
X142086469Y-87458487D01*
X142086469Y-87458487D02*
X141961646Y-87458487D01*
X141961646Y-87458487D02*
X141795216Y-87416879D01*
X141795216Y-87416879D02*
X141712001Y-87375272D01*
X141712001Y-87375272D02*
X141628786Y-87292057D01*
X141628786Y-87292057D02*
X141587178Y-87167234D01*
X141587178Y-87167234D02*
X141587178Y-86959196D01*
X141587178Y-87832956D02*
X142460938Y-87832956D01*
X139285938Y-73450025D02*
X138412178Y-73741278D01*
X138412178Y-73741278D02*
X139285938Y-74032531D01*
X138412178Y-74323785D02*
X139285938Y-74323785D01*
X138412178Y-74739861D02*
X139285938Y-74739861D01*
X139285938Y-74739861D02*
X138412178Y-75239152D01*
X138412178Y-75239152D02*
X139285938Y-75239152D01*
X138495393Y-89501373D02*
X138453786Y-89459765D01*
X138453786Y-89459765D02*
X138412178Y-89334943D01*
X138412178Y-89334943D02*
X138412178Y-89251727D01*
X138412178Y-89251727D02*
X138453786Y-89126904D01*
X138453786Y-89126904D02*
X138537001Y-89043689D01*
X138537001Y-89043689D02*
X138620216Y-89002082D01*
X138620216Y-89002082D02*
X138786646Y-88960474D01*
X138786646Y-88960474D02*
X138911469Y-88960474D01*
X138911469Y-88960474D02*
X139077900Y-89002082D01*
X139077900Y-89002082D02*
X139161115Y-89043689D01*
X139161115Y-89043689D02*
X139244330Y-89126904D01*
X139244330Y-89126904D02*
X139285938Y-89251727D01*
X139285938Y-89251727D02*
X139285938Y-89334943D01*
X139285938Y-89334943D02*
X139244330Y-89459765D01*
X139244330Y-89459765D02*
X139202723Y-89501373D01*
X138453786Y-89834234D02*
X138412178Y-89959057D01*
X138412178Y-89959057D02*
X138412178Y-90167095D01*
X138412178Y-90167095D02*
X138453786Y-90250310D01*
X138453786Y-90250310D02*
X138495393Y-90291918D01*
X138495393Y-90291918D02*
X138578608Y-90333525D01*
X138578608Y-90333525D02*
X138661824Y-90333525D01*
X138661824Y-90333525D02*
X138745039Y-90291918D01*
X138745039Y-90291918D02*
X138786646Y-90250310D01*
X138786646Y-90250310D02*
X138828254Y-90167095D01*
X138828254Y-90167095D02*
X138869862Y-90000664D01*
X138869862Y-90000664D02*
X138911469Y-89917449D01*
X138911469Y-89917449D02*
X138953077Y-89875842D01*
X138953077Y-89875842D02*
X139036292Y-89834234D01*
X139036292Y-89834234D02*
X139119507Y-89834234D01*
X139119507Y-89834234D02*
X139202723Y-89875842D01*
X139202723Y-89875842D02*
X139244330Y-89917449D01*
X139244330Y-89917449D02*
X139285938Y-90000664D01*
X139285938Y-90000664D02*
X139285938Y-90208703D01*
X139285938Y-90208703D02*
X139244330Y-90333525D01*
X139244330Y-78821277D02*
X139285938Y-78738062D01*
X139285938Y-78738062D02*
X139285938Y-78613239D01*
X139285938Y-78613239D02*
X139244330Y-78488416D01*
X139244330Y-78488416D02*
X139161115Y-78405201D01*
X139161115Y-78405201D02*
X139077900Y-78363594D01*
X139077900Y-78363594D02*
X138911469Y-78321986D01*
X138911469Y-78321986D02*
X138786646Y-78321986D01*
X138786646Y-78321986D02*
X138620216Y-78363594D01*
X138620216Y-78363594D02*
X138537001Y-78405201D01*
X138537001Y-78405201D02*
X138453786Y-78488416D01*
X138453786Y-78488416D02*
X138412178Y-78613239D01*
X138412178Y-78613239D02*
X138412178Y-78696455D01*
X138412178Y-78696455D02*
X138453786Y-78821277D01*
X138453786Y-78821277D02*
X138495393Y-78862885D01*
X138495393Y-78862885D02*
X138786646Y-78862885D01*
X138786646Y-78862885D02*
X138786646Y-78696455D01*
X138412178Y-79237354D02*
X139285938Y-79237354D01*
X139285938Y-79237354D02*
X138412178Y-79736645D01*
X138412178Y-79736645D02*
X139285938Y-79736645D01*
X138412178Y-80152722D02*
X139285938Y-80152722D01*
X139285938Y-80152722D02*
X139285938Y-80360760D01*
X139285938Y-80360760D02*
X139244330Y-80485583D01*
X139244330Y-80485583D02*
X139161115Y-80568798D01*
X139161115Y-80568798D02*
X139077900Y-80610405D01*
X139077900Y-80610405D02*
X138911469Y-80652013D01*
X138911469Y-80652013D02*
X138786646Y-80652013D01*
X138786646Y-80652013D02*
X138620216Y-80610405D01*
X138620216Y-80610405D02*
X138537001Y-80568798D01*
X138537001Y-80568798D02*
X138453786Y-80485583D01*
X138453786Y-80485583D02*
X138412178Y-80360760D01*
X138412178Y-80360760D02*
X138412178Y-80152722D01*
X141755786Y-80903594D02*
X141714178Y-81028417D01*
X141714178Y-81028417D02*
X141714178Y-81236455D01*
X141714178Y-81236455D02*
X141755786Y-81319670D01*
X141755786Y-81319670D02*
X141797393Y-81361278D01*
X141797393Y-81361278D02*
X141880608Y-81402885D01*
X141880608Y-81402885D02*
X141963824Y-81402885D01*
X141963824Y-81402885D02*
X142047039Y-81361278D01*
X142047039Y-81361278D02*
X142088646Y-81319670D01*
X142088646Y-81319670D02*
X142130254Y-81236455D01*
X142130254Y-81236455D02*
X142171862Y-81070024D01*
X142171862Y-81070024D02*
X142213469Y-80986809D01*
X142213469Y-80986809D02*
X142255077Y-80945202D01*
X142255077Y-80945202D02*
X142338292Y-80903594D01*
X142338292Y-80903594D02*
X142421507Y-80903594D01*
X142421507Y-80903594D02*
X142504723Y-80945202D01*
X142504723Y-80945202D02*
X142546330Y-80986809D01*
X142546330Y-80986809D02*
X142587938Y-81070024D01*
X142587938Y-81070024D02*
X142587938Y-81278063D01*
X142587938Y-81278063D02*
X142546330Y-81402885D01*
X141797393Y-82276645D02*
X141755786Y-82235037D01*
X141755786Y-82235037D02*
X141714178Y-82110215D01*
X141714178Y-82110215D02*
X141714178Y-82026999D01*
X141714178Y-82026999D02*
X141755786Y-81902176D01*
X141755786Y-81902176D02*
X141839001Y-81818961D01*
X141839001Y-81818961D02*
X141922216Y-81777354D01*
X141922216Y-81777354D02*
X142088646Y-81735746D01*
X142088646Y-81735746D02*
X142213469Y-81735746D01*
X142213469Y-81735746D02*
X142379900Y-81777354D01*
X142379900Y-81777354D02*
X142463115Y-81818961D01*
X142463115Y-81818961D02*
X142546330Y-81902176D01*
X142546330Y-81902176D02*
X142587938Y-82026999D01*
X142587938Y-82026999D02*
X142587938Y-82110215D01*
X142587938Y-82110215D02*
X142546330Y-82235037D01*
X142546330Y-82235037D02*
X142504723Y-82276645D01*
X141714178Y-82651114D02*
X142587938Y-82651114D01*
X141714178Y-83150405D02*
X142213469Y-82775936D01*
X142587938Y-83150405D02*
X142088646Y-82651114D01*
X138453786Y-83422790D02*
X138412178Y-83547613D01*
X138412178Y-83547613D02*
X138412178Y-83755651D01*
X138412178Y-83755651D02*
X138453786Y-83838866D01*
X138453786Y-83838866D02*
X138495393Y-83880474D01*
X138495393Y-83880474D02*
X138578608Y-83922081D01*
X138578608Y-83922081D02*
X138661824Y-83922081D01*
X138661824Y-83922081D02*
X138745039Y-83880474D01*
X138745039Y-83880474D02*
X138786646Y-83838866D01*
X138786646Y-83838866D02*
X138828254Y-83755651D01*
X138828254Y-83755651D02*
X138869862Y-83589220D01*
X138869862Y-83589220D02*
X138911469Y-83506005D01*
X138911469Y-83506005D02*
X138953077Y-83464398D01*
X138953077Y-83464398D02*
X139036292Y-83422790D01*
X139036292Y-83422790D02*
X139119507Y-83422790D01*
X139119507Y-83422790D02*
X139202723Y-83464398D01*
X139202723Y-83464398D02*
X139244330Y-83506005D01*
X139244330Y-83506005D02*
X139285938Y-83589220D01*
X139285938Y-83589220D02*
X139285938Y-83797259D01*
X139285938Y-83797259D02*
X139244330Y-83922081D01*
X138412178Y-84296550D02*
X139285938Y-84296550D01*
X139285938Y-84296550D02*
X139285938Y-84504588D01*
X139285938Y-84504588D02*
X139244330Y-84629411D01*
X139244330Y-84629411D02*
X139161115Y-84712626D01*
X139161115Y-84712626D02*
X139077900Y-84754233D01*
X139077900Y-84754233D02*
X138911469Y-84795841D01*
X138911469Y-84795841D02*
X138786646Y-84795841D01*
X138786646Y-84795841D02*
X138620216Y-84754233D01*
X138620216Y-84754233D02*
X138537001Y-84712626D01*
X138537001Y-84712626D02*
X138453786Y-84629411D01*
X138453786Y-84629411D02*
X138412178Y-84504588D01*
X138412178Y-84504588D02*
X138412178Y-84296550D01*
X139285938Y-85336740D02*
X139285938Y-85503171D01*
X139285938Y-85503171D02*
X139244330Y-85586386D01*
X139244330Y-85586386D02*
X139161115Y-85669601D01*
X139161115Y-85669601D02*
X138994685Y-85711209D01*
X138994685Y-85711209D02*
X138703431Y-85711209D01*
X138703431Y-85711209D02*
X138537001Y-85669601D01*
X138537001Y-85669601D02*
X138453786Y-85586386D01*
X138453786Y-85586386D02*
X138412178Y-85503171D01*
X138412178Y-85503171D02*
X138412178Y-85336740D01*
X138412178Y-85336740D02*
X138453786Y-85253525D01*
X138453786Y-85253525D02*
X138537001Y-85170310D01*
X138537001Y-85170310D02*
X138703431Y-85128702D01*
X138703431Y-85128702D02*
X138994685Y-85128702D01*
X138994685Y-85128702D02*
X139161115Y-85170310D01*
X139161115Y-85170310D02*
X139244330Y-85253525D01*
X139244330Y-85253525D02*
X139285938Y-85336740D01*
X142587938Y-75886005D02*
X142587938Y-76426904D01*
X142587938Y-76426904D02*
X142255077Y-76135651D01*
X142255077Y-76135651D02*
X142255077Y-76260474D01*
X142255077Y-76260474D02*
X142213469Y-76343689D01*
X142213469Y-76343689D02*
X142171862Y-76385297D01*
X142171862Y-76385297D02*
X142088646Y-76426904D01*
X142088646Y-76426904D02*
X141880608Y-76426904D01*
X141880608Y-76426904D02*
X141797393Y-76385297D01*
X141797393Y-76385297D02*
X141755786Y-76343689D01*
X141755786Y-76343689D02*
X141714178Y-76260474D01*
X141714178Y-76260474D02*
X141714178Y-76010828D01*
X141714178Y-76010828D02*
X141755786Y-75927613D01*
X141755786Y-75927613D02*
X141797393Y-75886005D01*
X142587938Y-76676550D02*
X141714178Y-76967803D01*
X141714178Y-76967803D02*
X142587938Y-77259056D01*
X141714178Y-77675132D02*
X141755786Y-77591917D01*
X141755786Y-77591917D02*
X141797393Y-77550310D01*
X141797393Y-77550310D02*
X141880608Y-77508702D01*
X141880608Y-77508702D02*
X142130254Y-77508702D01*
X142130254Y-77508702D02*
X142213469Y-77550310D01*
X142213469Y-77550310D02*
X142255077Y-77591917D01*
X142255077Y-77591917D02*
X142296685Y-77675132D01*
X142296685Y-77675132D02*
X142296685Y-77799955D01*
X142296685Y-77799955D02*
X142255077Y-77883171D01*
X142255077Y-77883171D02*
X142213469Y-77924778D01*
X142213469Y-77924778D02*
X142130254Y-77966386D01*
X142130254Y-77966386D02*
X141880608Y-77966386D01*
X141880608Y-77966386D02*
X141797393Y-77924778D01*
X141797393Y-77924778D02*
X141755786Y-77883171D01*
X141755786Y-77883171D02*
X141714178Y-77799955D01*
X141714178Y-77799955D02*
X141714178Y-77675132D01*
D12*
X137833333Y-110654819D02*
X137833333Y-109654819D01*
X137833333Y-109654819D02*
X138404761Y-110654819D01*
X138404761Y-110654819D02*
X138404761Y-109654819D01*
X139023809Y-110654819D02*
X138928571Y-110607200D01*
X138928571Y-110607200D02*
X138880952Y-110559580D01*
X138880952Y-110559580D02*
X138833333Y-110464342D01*
X138833333Y-110464342D02*
X138833333Y-110178628D01*
X138833333Y-110178628D02*
X138880952Y-110083390D01*
X138880952Y-110083390D02*
X138928571Y-110035771D01*
X138928571Y-110035771D02*
X139023809Y-109988152D01*
X139023809Y-109988152D02*
X139166666Y-109988152D01*
X139166666Y-109988152D02*
X139261904Y-110035771D01*
X139261904Y-110035771D02*
X139309523Y-110083390D01*
X139309523Y-110083390D02*
X139357142Y-110178628D01*
X139357142Y-110178628D02*
X139357142Y-110464342D01*
X139357142Y-110464342D02*
X139309523Y-110559580D01*
X139309523Y-110559580D02*
X139261904Y-110607200D01*
X139261904Y-110607200D02*
X139166666Y-110654819D01*
X139166666Y-110654819D02*
X139023809Y-110654819D01*
X140214285Y-110654819D02*
X140214285Y-109654819D01*
X140214285Y-110607200D02*
X140119047Y-110654819D01*
X140119047Y-110654819D02*
X139928571Y-110654819D01*
X139928571Y-110654819D02*
X139833333Y-110607200D01*
X139833333Y-110607200D02*
X139785714Y-110559580D01*
X139785714Y-110559580D02*
X139738095Y-110464342D01*
X139738095Y-110464342D02*
X139738095Y-110178628D01*
X139738095Y-110178628D02*
X139785714Y-110083390D01*
X139785714Y-110083390D02*
X139833333Y-110035771D01*
X139833333Y-110035771D02*
X139928571Y-109988152D01*
X139928571Y-109988152D02*
X140119047Y-109988152D01*
X140119047Y-109988152D02*
X140214285Y-110035771D01*
X141071428Y-110607200D02*
X140976190Y-110654819D01*
X140976190Y-110654819D02*
X140785714Y-110654819D01*
X140785714Y-110654819D02*
X140690476Y-110607200D01*
X140690476Y-110607200D02*
X140642857Y-110511961D01*
X140642857Y-110511961D02*
X140642857Y-110131009D01*
X140642857Y-110131009D02*
X140690476Y-110035771D01*
X140690476Y-110035771D02*
X140785714Y-109988152D01*
X140785714Y-109988152D02*
X140976190Y-109988152D01*
X140976190Y-109988152D02*
X141071428Y-110035771D01*
X141071428Y-110035771D02*
X141119047Y-110131009D01*
X141119047Y-110131009D02*
X141119047Y-110226247D01*
X141119047Y-110226247D02*
X140642857Y-110321485D01*
X141547619Y-110654819D02*
X141547619Y-109654819D01*
X141547619Y-109654819D02*
X141880952Y-110369104D01*
X141880952Y-110369104D02*
X142214285Y-109654819D01*
X142214285Y-109654819D02*
X142214285Y-110654819D01*
X143261904Y-110559580D02*
X143214285Y-110607200D01*
X143214285Y-110607200D02*
X143071428Y-110654819D01*
X143071428Y-110654819D02*
X142976190Y-110654819D01*
X142976190Y-110654819D02*
X142833333Y-110607200D01*
X142833333Y-110607200D02*
X142738095Y-110511961D01*
X142738095Y-110511961D02*
X142690476Y-110416723D01*
X142690476Y-110416723D02*
X142642857Y-110226247D01*
X142642857Y-110226247D02*
X142642857Y-110083390D01*
X142642857Y-110083390D02*
X142690476Y-109892914D01*
X142690476Y-109892914D02*
X142738095Y-109797676D01*
X142738095Y-109797676D02*
X142833333Y-109702438D01*
X142833333Y-109702438D02*
X142976190Y-109654819D01*
X142976190Y-109654819D02*
X143071428Y-109654819D01*
X143071428Y-109654819D02*
X143214285Y-109702438D01*
X143214285Y-109702438D02*
X143261904Y-109750057D01*
X143690476Y-109654819D02*
X143690476Y-110464342D01*
X143690476Y-110464342D02*
X143738095Y-110559580D01*
X143738095Y-110559580D02*
X143785714Y-110607200D01*
X143785714Y-110607200D02*
X143880952Y-110654819D01*
X143880952Y-110654819D02*
X144071428Y-110654819D01*
X144071428Y-110654819D02*
X144166666Y-110607200D01*
X144166666Y-110607200D02*
X144214285Y-110559580D01*
X144214285Y-110559580D02*
X144261904Y-110464342D01*
X144261904Y-110464342D02*
X144261904Y-109654819D01*
X144738095Y-110273866D02*
X145500000Y-110273866D01*
X145976190Y-110131009D02*
X146309523Y-110131009D01*
X146452380Y-110654819D02*
X145976190Y-110654819D01*
X145976190Y-110654819D02*
X145976190Y-109654819D01*
X145976190Y-109654819D02*
X146452380Y-109654819D01*
X146833333Y-110607200D02*
X146976190Y-110654819D01*
X146976190Y-110654819D02*
X147214285Y-110654819D01*
X147214285Y-110654819D02*
X147309523Y-110607200D01*
X147309523Y-110607200D02*
X147357142Y-110559580D01*
X147357142Y-110559580D02*
X147404761Y-110464342D01*
X147404761Y-110464342D02*
X147404761Y-110369104D01*
X147404761Y-110369104D02*
X147357142Y-110273866D01*
X147357142Y-110273866D02*
X147309523Y-110226247D01*
X147309523Y-110226247D02*
X147214285Y-110178628D01*
X147214285Y-110178628D02*
X147023809Y-110131009D01*
X147023809Y-110131009D02*
X146928571Y-110083390D01*
X146928571Y-110083390D02*
X146880952Y-110035771D01*
X146880952Y-110035771D02*
X146833333Y-109940533D01*
X146833333Y-109940533D02*
X146833333Y-109845295D01*
X146833333Y-109845295D02*
X146880952Y-109750057D01*
X146880952Y-109750057D02*
X146928571Y-109702438D01*
X146928571Y-109702438D02*
X147023809Y-109654819D01*
X147023809Y-109654819D02*
X147261904Y-109654819D01*
X147261904Y-109654819D02*
X147404761Y-109702438D01*
X147833333Y-110654819D02*
X147833333Y-109654819D01*
X147833333Y-109654819D02*
X148214285Y-109654819D01*
X148214285Y-109654819D02*
X148309523Y-109702438D01*
X148309523Y-109702438D02*
X148357142Y-109750057D01*
X148357142Y-109750057D02*
X148404761Y-109845295D01*
X148404761Y-109845295D02*
X148404761Y-109988152D01*
X148404761Y-109988152D02*
X148357142Y-110083390D01*
X148357142Y-110083390D02*
X148309523Y-110131009D01*
X148309523Y-110131009D02*
X148214285Y-110178628D01*
X148214285Y-110178628D02*
X147833333Y-110178628D01*
X148976190Y-110083390D02*
X148880952Y-110035771D01*
X148880952Y-110035771D02*
X148833333Y-109988152D01*
X148833333Y-109988152D02*
X148785714Y-109892914D01*
X148785714Y-109892914D02*
X148785714Y-109845295D01*
X148785714Y-109845295D02*
X148833333Y-109750057D01*
X148833333Y-109750057D02*
X148880952Y-109702438D01*
X148880952Y-109702438D02*
X148976190Y-109654819D01*
X148976190Y-109654819D02*
X149166666Y-109654819D01*
X149166666Y-109654819D02*
X149261904Y-109702438D01*
X149261904Y-109702438D02*
X149309523Y-109750057D01*
X149309523Y-109750057D02*
X149357142Y-109845295D01*
X149357142Y-109845295D02*
X149357142Y-109892914D01*
X149357142Y-109892914D02*
X149309523Y-109988152D01*
X149309523Y-109988152D02*
X149261904Y-110035771D01*
X149261904Y-110035771D02*
X149166666Y-110083390D01*
X149166666Y-110083390D02*
X148976190Y-110083390D01*
X148976190Y-110083390D02*
X148880952Y-110131009D01*
X148880952Y-110131009D02*
X148833333Y-110178628D01*
X148833333Y-110178628D02*
X148785714Y-110273866D01*
X148785714Y-110273866D02*
X148785714Y-110464342D01*
X148785714Y-110464342D02*
X148833333Y-110559580D01*
X148833333Y-110559580D02*
X148880952Y-110607200D01*
X148880952Y-110607200D02*
X148976190Y-110654819D01*
X148976190Y-110654819D02*
X149166666Y-110654819D01*
X149166666Y-110654819D02*
X149261904Y-110607200D01*
X149261904Y-110607200D02*
X149309523Y-110559580D01*
X149309523Y-110559580D02*
X149357142Y-110464342D01*
X149357142Y-110464342D02*
X149357142Y-110273866D01*
X149357142Y-110273866D02*
X149309523Y-110178628D01*
X149309523Y-110178628D02*
X149261904Y-110131009D01*
X149261904Y-110131009D02*
X149166666Y-110083390D01*
X149738095Y-109750057D02*
X149785714Y-109702438D01*
X149785714Y-109702438D02*
X149880952Y-109654819D01*
X149880952Y-109654819D02*
X150119047Y-109654819D01*
X150119047Y-109654819D02*
X150214285Y-109702438D01*
X150214285Y-109702438D02*
X150261904Y-109750057D01*
X150261904Y-109750057D02*
X150309523Y-109845295D01*
X150309523Y-109845295D02*
X150309523Y-109940533D01*
X150309523Y-109940533D02*
X150261904Y-110083390D01*
X150261904Y-110083390D02*
X149690476Y-110654819D01*
X149690476Y-110654819D02*
X150309523Y-110654819D01*
X151166666Y-109654819D02*
X150976190Y-109654819D01*
X150976190Y-109654819D02*
X150880952Y-109702438D01*
X150880952Y-109702438D02*
X150833333Y-109750057D01*
X150833333Y-109750057D02*
X150738095Y-109892914D01*
X150738095Y-109892914D02*
X150690476Y-110083390D01*
X150690476Y-110083390D02*
X150690476Y-110464342D01*
X150690476Y-110464342D02*
X150738095Y-110559580D01*
X150738095Y-110559580D02*
X150785714Y-110607200D01*
X150785714Y-110607200D02*
X150880952Y-110654819D01*
X150880952Y-110654819D02*
X151071428Y-110654819D01*
X151071428Y-110654819D02*
X151166666Y-110607200D01*
X151166666Y-110607200D02*
X151214285Y-110559580D01*
X151214285Y-110559580D02*
X151261904Y-110464342D01*
X151261904Y-110464342D02*
X151261904Y-110226247D01*
X151261904Y-110226247D02*
X151214285Y-110131009D01*
X151214285Y-110131009D02*
X151166666Y-110083390D01*
X151166666Y-110083390D02*
X151071428Y-110035771D01*
X151071428Y-110035771D02*
X150880952Y-110035771D01*
X150880952Y-110035771D02*
X150785714Y-110083390D01*
X150785714Y-110083390D02*
X150738095Y-110131009D01*
X150738095Y-110131009D02*
X150690476Y-110226247D01*
X152119047Y-109654819D02*
X151928571Y-109654819D01*
X151928571Y-109654819D02*
X151833333Y-109702438D01*
X151833333Y-109702438D02*
X151785714Y-109750057D01*
X151785714Y-109750057D02*
X151690476Y-109892914D01*
X151690476Y-109892914D02*
X151642857Y-110083390D01*
X151642857Y-110083390D02*
X151642857Y-110464342D01*
X151642857Y-110464342D02*
X151690476Y-110559580D01*
X151690476Y-110559580D02*
X151738095Y-110607200D01*
X151738095Y-110607200D02*
X151833333Y-110654819D01*
X151833333Y-110654819D02*
X152023809Y-110654819D01*
X152023809Y-110654819D02*
X152119047Y-110607200D01*
X152119047Y-110607200D02*
X152166666Y-110559580D01*
X152166666Y-110559580D02*
X152214285Y-110464342D01*
X152214285Y-110464342D02*
X152214285Y-110226247D01*
X152214285Y-110226247D02*
X152166666Y-110131009D01*
X152166666Y-110131009D02*
X152119047Y-110083390D01*
X152119047Y-110083390D02*
X152023809Y-110035771D01*
X152023809Y-110035771D02*
X151833333Y-110035771D01*
X151833333Y-110035771D02*
X151738095Y-110083390D01*
X151738095Y-110083390D02*
X151690476Y-110131009D01*
X151690476Y-110131009D02*
X151642857Y-110226247D01*
X110661904Y-87202438D02*
X110566666Y-87154819D01*
X110566666Y-87154819D02*
X110423809Y-87154819D01*
X110423809Y-87154819D02*
X110280952Y-87202438D01*
X110280952Y-87202438D02*
X110185714Y-87297676D01*
X110185714Y-87297676D02*
X110138095Y-87392914D01*
X110138095Y-87392914D02*
X110090476Y-87583390D01*
X110090476Y-87583390D02*
X110090476Y-87726247D01*
X110090476Y-87726247D02*
X110138095Y-87916723D01*
X110138095Y-87916723D02*
X110185714Y-88011961D01*
X110185714Y-88011961D02*
X110280952Y-88107200D01*
X110280952Y-88107200D02*
X110423809Y-88154819D01*
X110423809Y-88154819D02*
X110519047Y-88154819D01*
X110519047Y-88154819D02*
X110661904Y-88107200D01*
X110661904Y-88107200D02*
X110709523Y-88059580D01*
X110709523Y-88059580D02*
X110709523Y-87726247D01*
X110709523Y-87726247D02*
X110519047Y-87726247D01*
X109614286Y-80487200D02*
X109757143Y-80534819D01*
X109757143Y-80534819D02*
X109995238Y-80534819D01*
X109995238Y-80534819D02*
X110090476Y-80487200D01*
X110090476Y-80487200D02*
X110138095Y-80439580D01*
X110138095Y-80439580D02*
X110185714Y-80344342D01*
X110185714Y-80344342D02*
X110185714Y-80249104D01*
X110185714Y-80249104D02*
X110138095Y-80153866D01*
X110138095Y-80153866D02*
X110090476Y-80106247D01*
X110090476Y-80106247D02*
X109995238Y-80058628D01*
X109995238Y-80058628D02*
X109804762Y-80011009D01*
X109804762Y-80011009D02*
X109709524Y-79963390D01*
X109709524Y-79963390D02*
X109661905Y-79915771D01*
X109661905Y-79915771D02*
X109614286Y-79820533D01*
X109614286Y-79820533D02*
X109614286Y-79725295D01*
X109614286Y-79725295D02*
X109661905Y-79630057D01*
X109661905Y-79630057D02*
X109709524Y-79582438D01*
X109709524Y-79582438D02*
X109804762Y-79534819D01*
X109804762Y-79534819D02*
X110042857Y-79534819D01*
X110042857Y-79534819D02*
X110185714Y-79582438D01*
X111185714Y-80439580D02*
X111138095Y-80487200D01*
X111138095Y-80487200D02*
X110995238Y-80534819D01*
X110995238Y-80534819D02*
X110900000Y-80534819D01*
X110900000Y-80534819D02*
X110757143Y-80487200D01*
X110757143Y-80487200D02*
X110661905Y-80391961D01*
X110661905Y-80391961D02*
X110614286Y-80296723D01*
X110614286Y-80296723D02*
X110566667Y-80106247D01*
X110566667Y-80106247D02*
X110566667Y-79963390D01*
X110566667Y-79963390D02*
X110614286Y-79772914D01*
X110614286Y-79772914D02*
X110661905Y-79677676D01*
X110661905Y-79677676D02*
X110757143Y-79582438D01*
X110757143Y-79582438D02*
X110900000Y-79534819D01*
X110900000Y-79534819D02*
X110995238Y-79534819D01*
X110995238Y-79534819D02*
X111138095Y-79582438D01*
X111138095Y-79582438D02*
X111185714Y-79630057D01*
X132521905Y-65294819D02*
X132521905Y-64294819D01*
X132521905Y-64294819D02*
X132760000Y-64294819D01*
X132760000Y-64294819D02*
X132902857Y-64342438D01*
X132902857Y-64342438D02*
X132998095Y-64437676D01*
X132998095Y-64437676D02*
X133045714Y-64532914D01*
X133045714Y-64532914D02*
X133093333Y-64723390D01*
X133093333Y-64723390D02*
X133093333Y-64866247D01*
X133093333Y-64866247D02*
X133045714Y-65056723D01*
X133045714Y-65056723D02*
X132998095Y-65151961D01*
X132998095Y-65151961D02*
X132902857Y-65247200D01*
X132902857Y-65247200D02*
X132760000Y-65294819D01*
X132760000Y-65294819D02*
X132521905Y-65294819D01*
X133712381Y-64294819D02*
X133807619Y-64294819D01*
X133807619Y-64294819D02*
X133902857Y-64342438D01*
X133902857Y-64342438D02*
X133950476Y-64390057D01*
X133950476Y-64390057D02*
X133998095Y-64485295D01*
X133998095Y-64485295D02*
X134045714Y-64675771D01*
X134045714Y-64675771D02*
X134045714Y-64913866D01*
X134045714Y-64913866D02*
X133998095Y-65104342D01*
X133998095Y-65104342D02*
X133950476Y-65199580D01*
X133950476Y-65199580D02*
X133902857Y-65247200D01*
X133902857Y-65247200D02*
X133807619Y-65294819D01*
X133807619Y-65294819D02*
X133712381Y-65294819D01*
X133712381Y-65294819D02*
X133617143Y-65247200D01*
X133617143Y-65247200D02*
X133569524Y-65199580D01*
X133569524Y-65199580D02*
X133521905Y-65104342D01*
X133521905Y-65104342D02*
X133474286Y-64913866D01*
X133474286Y-64913866D02*
X133474286Y-64675771D01*
X133474286Y-64675771D02*
X133521905Y-64485295D01*
X133521905Y-64485295D02*
X133569524Y-64390057D01*
X133569524Y-64390057D02*
X133617143Y-64342438D01*
X133617143Y-64342438D02*
X133712381Y-64294819D01*
X109685714Y-65009104D02*
X110161904Y-65009104D01*
X109590476Y-65294819D02*
X109923809Y-64294819D01*
X109923809Y-64294819D02*
X110257142Y-65294819D01*
X110780952Y-64294819D02*
X110876190Y-64294819D01*
X110876190Y-64294819D02*
X110971428Y-64342438D01*
X110971428Y-64342438D02*
X111019047Y-64390057D01*
X111019047Y-64390057D02*
X111066666Y-64485295D01*
X111066666Y-64485295D02*
X111114285Y-64675771D01*
X111114285Y-64675771D02*
X111114285Y-64913866D01*
X111114285Y-64913866D02*
X111066666Y-65104342D01*
X111066666Y-65104342D02*
X111019047Y-65199580D01*
X111019047Y-65199580D02*
X110971428Y-65247200D01*
X110971428Y-65247200D02*
X110876190Y-65294819D01*
X110876190Y-65294819D02*
X110780952Y-65294819D01*
X110780952Y-65294819D02*
X110685714Y-65247200D01*
X110685714Y-65247200D02*
X110638095Y-65199580D01*
X110638095Y-65199580D02*
X110590476Y-65104342D01*
X110590476Y-65104342D02*
X110542857Y-64913866D01*
X110542857Y-64913866D02*
X110542857Y-64675771D01*
X110542857Y-64675771D02*
X110590476Y-64485295D01*
X110590476Y-64485295D02*
X110638095Y-64390057D01*
X110638095Y-64390057D02*
X110685714Y-64342438D01*
X110685714Y-64342438D02*
X110780952Y-64294819D01*
X109638095Y-77947200D02*
X109780952Y-77994819D01*
X109780952Y-77994819D02*
X110019047Y-77994819D01*
X110019047Y-77994819D02*
X110114285Y-77947200D01*
X110114285Y-77947200D02*
X110161904Y-77899580D01*
X110161904Y-77899580D02*
X110209523Y-77804342D01*
X110209523Y-77804342D02*
X110209523Y-77709104D01*
X110209523Y-77709104D02*
X110161904Y-77613866D01*
X110161904Y-77613866D02*
X110114285Y-77566247D01*
X110114285Y-77566247D02*
X110019047Y-77518628D01*
X110019047Y-77518628D02*
X109828571Y-77471009D01*
X109828571Y-77471009D02*
X109733333Y-77423390D01*
X109733333Y-77423390D02*
X109685714Y-77375771D01*
X109685714Y-77375771D02*
X109638095Y-77280533D01*
X109638095Y-77280533D02*
X109638095Y-77185295D01*
X109638095Y-77185295D02*
X109685714Y-77090057D01*
X109685714Y-77090057D02*
X109733333Y-77042438D01*
X109733333Y-77042438D02*
X109828571Y-76994819D01*
X109828571Y-76994819D02*
X110066666Y-76994819D01*
X110066666Y-76994819D02*
X110209523Y-77042438D01*
X111161904Y-77994819D02*
X110590476Y-77994819D01*
X110876190Y-77994819D02*
X110876190Y-76994819D01*
X110876190Y-76994819D02*
X110780952Y-77137676D01*
X110780952Y-77137676D02*
X110685714Y-77232914D01*
X110685714Y-77232914D02*
X110590476Y-77280533D01*
X132498095Y-76994819D02*
X133117142Y-76994819D01*
X133117142Y-76994819D02*
X132783809Y-77375771D01*
X132783809Y-77375771D02*
X132926666Y-77375771D01*
X132926666Y-77375771D02*
X133021904Y-77423390D01*
X133021904Y-77423390D02*
X133069523Y-77471009D01*
X133069523Y-77471009D02*
X133117142Y-77566247D01*
X133117142Y-77566247D02*
X133117142Y-77804342D01*
X133117142Y-77804342D02*
X133069523Y-77899580D01*
X133069523Y-77899580D02*
X133021904Y-77947200D01*
X133021904Y-77947200D02*
X132926666Y-77994819D01*
X132926666Y-77994819D02*
X132640952Y-77994819D01*
X132640952Y-77994819D02*
X132545714Y-77947200D01*
X132545714Y-77947200D02*
X132498095Y-77899580D01*
X133402857Y-76994819D02*
X133736190Y-77994819D01*
X133736190Y-77994819D02*
X134069523Y-76994819D01*
X109590476Y-83027200D02*
X109733333Y-83074819D01*
X109733333Y-83074819D02*
X109971428Y-83074819D01*
X109971428Y-83074819D02*
X110066666Y-83027200D01*
X110066666Y-83027200D02*
X110114285Y-82979580D01*
X110114285Y-82979580D02*
X110161904Y-82884342D01*
X110161904Y-82884342D02*
X110161904Y-82789104D01*
X110161904Y-82789104D02*
X110114285Y-82693866D01*
X110114285Y-82693866D02*
X110066666Y-82646247D01*
X110066666Y-82646247D02*
X109971428Y-82598628D01*
X109971428Y-82598628D02*
X109780952Y-82551009D01*
X109780952Y-82551009D02*
X109685714Y-82503390D01*
X109685714Y-82503390D02*
X109638095Y-82455771D01*
X109638095Y-82455771D02*
X109590476Y-82360533D01*
X109590476Y-82360533D02*
X109590476Y-82265295D01*
X109590476Y-82265295D02*
X109638095Y-82170057D01*
X109638095Y-82170057D02*
X109685714Y-82122438D01*
X109685714Y-82122438D02*
X109780952Y-82074819D01*
X109780952Y-82074819D02*
X110019047Y-82074819D01*
X110019047Y-82074819D02*
X110161904Y-82122438D01*
X110780952Y-82074819D02*
X110971428Y-82074819D01*
X110971428Y-82074819D02*
X111066666Y-82122438D01*
X111066666Y-82122438D02*
X111161904Y-82217676D01*
X111161904Y-82217676D02*
X111209523Y-82408152D01*
X111209523Y-82408152D02*
X111209523Y-82741485D01*
X111209523Y-82741485D02*
X111161904Y-82931961D01*
X111161904Y-82931961D02*
X111066666Y-83027200D01*
X111066666Y-83027200D02*
X110971428Y-83074819D01*
X110971428Y-83074819D02*
X110780952Y-83074819D01*
X110780952Y-83074819D02*
X110685714Y-83027200D01*
X110685714Y-83027200D02*
X110590476Y-82931961D01*
X110590476Y-82931961D02*
X110542857Y-82741485D01*
X110542857Y-82741485D02*
X110542857Y-82408152D01*
X110542857Y-82408152D02*
X110590476Y-82217676D01*
X110590476Y-82217676D02*
X110685714Y-82122438D01*
X110685714Y-82122438D02*
X110780952Y-82074819D01*
X132521905Y-67834819D02*
X132521905Y-66834819D01*
X132521905Y-66834819D02*
X132760000Y-66834819D01*
X132760000Y-66834819D02*
X132902857Y-66882438D01*
X132902857Y-66882438D02*
X132998095Y-66977676D01*
X132998095Y-66977676D02*
X133045714Y-67072914D01*
X133045714Y-67072914D02*
X133093333Y-67263390D01*
X133093333Y-67263390D02*
X133093333Y-67406247D01*
X133093333Y-67406247D02*
X133045714Y-67596723D01*
X133045714Y-67596723D02*
X132998095Y-67691961D01*
X132998095Y-67691961D02*
X132902857Y-67787200D01*
X132902857Y-67787200D02*
X132760000Y-67834819D01*
X132760000Y-67834819D02*
X132521905Y-67834819D01*
X134045714Y-67834819D02*
X133474286Y-67834819D01*
X133760000Y-67834819D02*
X133760000Y-66834819D01*
X133760000Y-66834819D02*
X133664762Y-66977676D01*
X133664762Y-66977676D02*
X133569524Y-67072914D01*
X133569524Y-67072914D02*
X133474286Y-67120533D01*
X109661905Y-92711009D02*
X109995238Y-92711009D01*
X110138095Y-93234819D02*
X109661905Y-93234819D01*
X109661905Y-93234819D02*
X109661905Y-92234819D01*
X109661905Y-92234819D02*
X110138095Y-92234819D01*
X110566667Y-93234819D02*
X110566667Y-92234819D01*
X110566667Y-92234819D02*
X111138095Y-93234819D01*
X111138095Y-93234819D02*
X111138095Y-92234819D01*
X132521905Y-72914819D02*
X132521905Y-71914819D01*
X132521905Y-71914819D02*
X132760000Y-71914819D01*
X132760000Y-71914819D02*
X132902857Y-71962438D01*
X132902857Y-71962438D02*
X132998095Y-72057676D01*
X132998095Y-72057676D02*
X133045714Y-72152914D01*
X133045714Y-72152914D02*
X133093333Y-72343390D01*
X133093333Y-72343390D02*
X133093333Y-72486247D01*
X133093333Y-72486247D02*
X133045714Y-72676723D01*
X133045714Y-72676723D02*
X132998095Y-72771961D01*
X132998095Y-72771961D02*
X132902857Y-72867200D01*
X132902857Y-72867200D02*
X132760000Y-72914819D01*
X132760000Y-72914819D02*
X132521905Y-72914819D01*
X133426667Y-71914819D02*
X134045714Y-71914819D01*
X134045714Y-71914819D02*
X133712381Y-72295771D01*
X133712381Y-72295771D02*
X133855238Y-72295771D01*
X133855238Y-72295771D02*
X133950476Y-72343390D01*
X133950476Y-72343390D02*
X133998095Y-72391009D01*
X133998095Y-72391009D02*
X134045714Y-72486247D01*
X134045714Y-72486247D02*
X134045714Y-72724342D01*
X134045714Y-72724342D02*
X133998095Y-72819580D01*
X133998095Y-72819580D02*
X133950476Y-72867200D01*
X133950476Y-72867200D02*
X133855238Y-72914819D01*
X133855238Y-72914819D02*
X133569524Y-72914819D01*
X133569524Y-72914819D02*
X133474286Y-72867200D01*
X133474286Y-72867200D02*
X133426667Y-72819580D01*
X133521904Y-79582438D02*
X133426666Y-79534819D01*
X133426666Y-79534819D02*
X133283809Y-79534819D01*
X133283809Y-79534819D02*
X133140952Y-79582438D01*
X133140952Y-79582438D02*
X133045714Y-79677676D01*
X133045714Y-79677676D02*
X132998095Y-79772914D01*
X132998095Y-79772914D02*
X132950476Y-79963390D01*
X132950476Y-79963390D02*
X132950476Y-80106247D01*
X132950476Y-80106247D02*
X132998095Y-80296723D01*
X132998095Y-80296723D02*
X133045714Y-80391961D01*
X133045714Y-80391961D02*
X133140952Y-80487200D01*
X133140952Y-80487200D02*
X133283809Y-80534819D01*
X133283809Y-80534819D02*
X133379047Y-80534819D01*
X133379047Y-80534819D02*
X133521904Y-80487200D01*
X133521904Y-80487200D02*
X133569523Y-80439580D01*
X133569523Y-80439580D02*
X133569523Y-80106247D01*
X133569523Y-80106247D02*
X133379047Y-80106247D01*
X133093333Y-93234819D02*
X132760000Y-92758628D01*
X132521905Y-93234819D02*
X132521905Y-92234819D01*
X132521905Y-92234819D02*
X132902857Y-92234819D01*
X132902857Y-92234819D02*
X132998095Y-92282438D01*
X132998095Y-92282438D02*
X133045714Y-92330057D01*
X133045714Y-92330057D02*
X133093333Y-92425295D01*
X133093333Y-92425295D02*
X133093333Y-92568152D01*
X133093333Y-92568152D02*
X133045714Y-92663390D01*
X133045714Y-92663390D02*
X132998095Y-92711009D01*
X132998095Y-92711009D02*
X132902857Y-92758628D01*
X132902857Y-92758628D02*
X132521905Y-92758628D01*
X133426667Y-92234819D02*
X134093333Y-93234819D01*
X134093333Y-92234819D02*
X133426667Y-93234819D01*
X109852380Y-95774819D02*
X109519047Y-95298628D01*
X109280952Y-95774819D02*
X109280952Y-94774819D01*
X109280952Y-94774819D02*
X109661904Y-94774819D01*
X109661904Y-94774819D02*
X109757142Y-94822438D01*
X109757142Y-94822438D02*
X109804761Y-94870057D01*
X109804761Y-94870057D02*
X109852380Y-94965295D01*
X109852380Y-94965295D02*
X109852380Y-95108152D01*
X109852380Y-95108152D02*
X109804761Y-95203390D01*
X109804761Y-95203390D02*
X109757142Y-95251009D01*
X109757142Y-95251009D02*
X109661904Y-95298628D01*
X109661904Y-95298628D02*
X109280952Y-95298628D01*
X110233333Y-95727200D02*
X110376190Y-95774819D01*
X110376190Y-95774819D02*
X110614285Y-95774819D01*
X110614285Y-95774819D02*
X110709523Y-95727200D01*
X110709523Y-95727200D02*
X110757142Y-95679580D01*
X110757142Y-95679580D02*
X110804761Y-95584342D01*
X110804761Y-95584342D02*
X110804761Y-95489104D01*
X110804761Y-95489104D02*
X110757142Y-95393866D01*
X110757142Y-95393866D02*
X110709523Y-95346247D01*
X110709523Y-95346247D02*
X110614285Y-95298628D01*
X110614285Y-95298628D02*
X110423809Y-95251009D01*
X110423809Y-95251009D02*
X110328571Y-95203390D01*
X110328571Y-95203390D02*
X110280952Y-95155771D01*
X110280952Y-95155771D02*
X110233333Y-95060533D01*
X110233333Y-95060533D02*
X110233333Y-94965295D01*
X110233333Y-94965295D02*
X110280952Y-94870057D01*
X110280952Y-94870057D02*
X110328571Y-94822438D01*
X110328571Y-94822438D02*
X110423809Y-94774819D01*
X110423809Y-94774819D02*
X110661904Y-94774819D01*
X110661904Y-94774819D02*
X110804761Y-94822438D01*
X111090476Y-94774819D02*
X111661904Y-94774819D01*
X111376190Y-95774819D02*
X111376190Y-94774819D01*
X109614286Y-85567200D02*
X109757143Y-85614819D01*
X109757143Y-85614819D02*
X109995238Y-85614819D01*
X109995238Y-85614819D02*
X110090476Y-85567200D01*
X110090476Y-85567200D02*
X110138095Y-85519580D01*
X110138095Y-85519580D02*
X110185714Y-85424342D01*
X110185714Y-85424342D02*
X110185714Y-85329104D01*
X110185714Y-85329104D02*
X110138095Y-85233866D01*
X110138095Y-85233866D02*
X110090476Y-85186247D01*
X110090476Y-85186247D02*
X109995238Y-85138628D01*
X109995238Y-85138628D02*
X109804762Y-85091009D01*
X109804762Y-85091009D02*
X109709524Y-85043390D01*
X109709524Y-85043390D02*
X109661905Y-84995771D01*
X109661905Y-84995771D02*
X109614286Y-84900533D01*
X109614286Y-84900533D02*
X109614286Y-84805295D01*
X109614286Y-84805295D02*
X109661905Y-84710057D01*
X109661905Y-84710057D02*
X109709524Y-84662438D01*
X109709524Y-84662438D02*
X109804762Y-84614819D01*
X109804762Y-84614819D02*
X110042857Y-84614819D01*
X110042857Y-84614819D02*
X110185714Y-84662438D01*
X110614286Y-85614819D02*
X110614286Y-84614819D01*
X111185714Y-85614819D02*
X110757143Y-85043390D01*
X111185714Y-84614819D02*
X110614286Y-85186247D01*
X132521905Y-90694819D02*
X132521905Y-89694819D01*
X132521905Y-89694819D02*
X132760000Y-89694819D01*
X132760000Y-89694819D02*
X132902857Y-89742438D01*
X132902857Y-89742438D02*
X132998095Y-89837676D01*
X132998095Y-89837676D02*
X133045714Y-89932914D01*
X133045714Y-89932914D02*
X133093333Y-90123390D01*
X133093333Y-90123390D02*
X133093333Y-90266247D01*
X133093333Y-90266247D02*
X133045714Y-90456723D01*
X133045714Y-90456723D02*
X132998095Y-90551961D01*
X132998095Y-90551961D02*
X132902857Y-90647200D01*
X132902857Y-90647200D02*
X132760000Y-90694819D01*
X132760000Y-90694819D02*
X132521905Y-90694819D01*
X133664762Y-90123390D02*
X133569524Y-90075771D01*
X133569524Y-90075771D02*
X133521905Y-90028152D01*
X133521905Y-90028152D02*
X133474286Y-89932914D01*
X133474286Y-89932914D02*
X133474286Y-89885295D01*
X133474286Y-89885295D02*
X133521905Y-89790057D01*
X133521905Y-89790057D02*
X133569524Y-89742438D01*
X133569524Y-89742438D02*
X133664762Y-89694819D01*
X133664762Y-89694819D02*
X133855238Y-89694819D01*
X133855238Y-89694819D02*
X133950476Y-89742438D01*
X133950476Y-89742438D02*
X133998095Y-89790057D01*
X133998095Y-89790057D02*
X134045714Y-89885295D01*
X134045714Y-89885295D02*
X134045714Y-89932914D01*
X134045714Y-89932914D02*
X133998095Y-90028152D01*
X133998095Y-90028152D02*
X133950476Y-90075771D01*
X133950476Y-90075771D02*
X133855238Y-90123390D01*
X133855238Y-90123390D02*
X133664762Y-90123390D01*
X133664762Y-90123390D02*
X133569524Y-90171009D01*
X133569524Y-90171009D02*
X133521905Y-90218628D01*
X133521905Y-90218628D02*
X133474286Y-90313866D01*
X133474286Y-90313866D02*
X133474286Y-90504342D01*
X133474286Y-90504342D02*
X133521905Y-90599580D01*
X133521905Y-90599580D02*
X133569524Y-90647200D01*
X133569524Y-90647200D02*
X133664762Y-90694819D01*
X133664762Y-90694819D02*
X133855238Y-90694819D01*
X133855238Y-90694819D02*
X133950476Y-90647200D01*
X133950476Y-90647200D02*
X133998095Y-90599580D01*
X133998095Y-90599580D02*
X134045714Y-90504342D01*
X134045714Y-90504342D02*
X134045714Y-90313866D01*
X134045714Y-90313866D02*
X133998095Y-90218628D01*
X133998095Y-90218628D02*
X133950476Y-90171009D01*
X133950476Y-90171009D02*
X133855238Y-90123390D01*
X109304762Y-99854819D02*
X109638095Y-100854819D01*
X109638095Y-100854819D02*
X109971428Y-99854819D01*
X110304762Y-100854819D02*
X110304762Y-99854819D01*
X110780952Y-100854819D02*
X110780952Y-99854819D01*
X110780952Y-99854819D02*
X111352380Y-100854819D01*
X111352380Y-100854819D02*
X111352380Y-99854819D01*
X132498095Y-94774819D02*
X133069523Y-94774819D01*
X132783809Y-95774819D02*
X132783809Y-94774819D01*
X133307619Y-94774819D02*
X133974285Y-95774819D01*
X133974285Y-94774819D02*
X133307619Y-95774819D01*
X132521905Y-75454819D02*
X132521905Y-74454819D01*
X132521905Y-74454819D02*
X132760000Y-74454819D01*
X132760000Y-74454819D02*
X132902857Y-74502438D01*
X132902857Y-74502438D02*
X132998095Y-74597676D01*
X132998095Y-74597676D02*
X133045714Y-74692914D01*
X133045714Y-74692914D02*
X133093333Y-74883390D01*
X133093333Y-74883390D02*
X133093333Y-75026247D01*
X133093333Y-75026247D02*
X133045714Y-75216723D01*
X133045714Y-75216723D02*
X132998095Y-75311961D01*
X132998095Y-75311961D02*
X132902857Y-75407200D01*
X132902857Y-75407200D02*
X132760000Y-75454819D01*
X132760000Y-75454819D02*
X132521905Y-75454819D01*
X133950476Y-74788152D02*
X133950476Y-75454819D01*
X133712381Y-74407200D02*
X133474286Y-75121485D01*
X133474286Y-75121485D02*
X134093333Y-75121485D01*
X132521905Y-70374819D02*
X132521905Y-69374819D01*
X132521905Y-69374819D02*
X132760000Y-69374819D01*
X132760000Y-69374819D02*
X132902857Y-69422438D01*
X132902857Y-69422438D02*
X132998095Y-69517676D01*
X132998095Y-69517676D02*
X133045714Y-69612914D01*
X133045714Y-69612914D02*
X133093333Y-69803390D01*
X133093333Y-69803390D02*
X133093333Y-69946247D01*
X133093333Y-69946247D02*
X133045714Y-70136723D01*
X133045714Y-70136723D02*
X132998095Y-70231961D01*
X132998095Y-70231961D02*
X132902857Y-70327200D01*
X132902857Y-70327200D02*
X132760000Y-70374819D01*
X132760000Y-70374819D02*
X132521905Y-70374819D01*
X133474286Y-69470057D02*
X133521905Y-69422438D01*
X133521905Y-69422438D02*
X133617143Y-69374819D01*
X133617143Y-69374819D02*
X133855238Y-69374819D01*
X133855238Y-69374819D02*
X133950476Y-69422438D01*
X133950476Y-69422438D02*
X133998095Y-69470057D01*
X133998095Y-69470057D02*
X134045714Y-69565295D01*
X134045714Y-69565295D02*
X134045714Y-69660533D01*
X134045714Y-69660533D02*
X133998095Y-69803390D01*
X133998095Y-69803390D02*
X133426667Y-70374819D01*
X133426667Y-70374819D02*
X134045714Y-70374819D01*
X109638095Y-75407200D02*
X109780952Y-75454819D01*
X109780952Y-75454819D02*
X110019047Y-75454819D01*
X110019047Y-75454819D02*
X110114285Y-75407200D01*
X110114285Y-75407200D02*
X110161904Y-75359580D01*
X110161904Y-75359580D02*
X110209523Y-75264342D01*
X110209523Y-75264342D02*
X110209523Y-75169104D01*
X110209523Y-75169104D02*
X110161904Y-75073866D01*
X110161904Y-75073866D02*
X110114285Y-75026247D01*
X110114285Y-75026247D02*
X110019047Y-74978628D01*
X110019047Y-74978628D02*
X109828571Y-74931009D01*
X109828571Y-74931009D02*
X109733333Y-74883390D01*
X109733333Y-74883390D02*
X109685714Y-74835771D01*
X109685714Y-74835771D02*
X109638095Y-74740533D01*
X109638095Y-74740533D02*
X109638095Y-74645295D01*
X109638095Y-74645295D02*
X109685714Y-74550057D01*
X109685714Y-74550057D02*
X109733333Y-74502438D01*
X109733333Y-74502438D02*
X109828571Y-74454819D01*
X109828571Y-74454819D02*
X110066666Y-74454819D01*
X110066666Y-74454819D02*
X110209523Y-74502438D01*
X110590476Y-74550057D02*
X110638095Y-74502438D01*
X110638095Y-74502438D02*
X110733333Y-74454819D01*
X110733333Y-74454819D02*
X110971428Y-74454819D01*
X110971428Y-74454819D02*
X111066666Y-74502438D01*
X111066666Y-74502438D02*
X111114285Y-74550057D01*
X111114285Y-74550057D02*
X111161904Y-74645295D01*
X111161904Y-74645295D02*
X111161904Y-74740533D01*
X111161904Y-74740533D02*
X111114285Y-74883390D01*
X111114285Y-74883390D02*
X110542857Y-75454819D01*
X110542857Y-75454819D02*
X111161904Y-75454819D01*
X132521905Y-88154819D02*
X132521905Y-87154819D01*
X132521905Y-87154819D02*
X132760000Y-87154819D01*
X132760000Y-87154819D02*
X132902857Y-87202438D01*
X132902857Y-87202438D02*
X132998095Y-87297676D01*
X132998095Y-87297676D02*
X133045714Y-87392914D01*
X133045714Y-87392914D02*
X133093333Y-87583390D01*
X133093333Y-87583390D02*
X133093333Y-87726247D01*
X133093333Y-87726247D02*
X133045714Y-87916723D01*
X133045714Y-87916723D02*
X132998095Y-88011961D01*
X132998095Y-88011961D02*
X132902857Y-88107200D01*
X132902857Y-88107200D02*
X132760000Y-88154819D01*
X132760000Y-88154819D02*
X132521905Y-88154819D01*
X133426667Y-87154819D02*
X134093333Y-87154819D01*
X134093333Y-87154819D02*
X133664762Y-88154819D01*
X133521904Y-97362438D02*
X133426666Y-97314819D01*
X133426666Y-97314819D02*
X133283809Y-97314819D01*
X133283809Y-97314819D02*
X133140952Y-97362438D01*
X133140952Y-97362438D02*
X133045714Y-97457676D01*
X133045714Y-97457676D02*
X132998095Y-97552914D01*
X132998095Y-97552914D02*
X132950476Y-97743390D01*
X132950476Y-97743390D02*
X132950476Y-97886247D01*
X132950476Y-97886247D02*
X132998095Y-98076723D01*
X132998095Y-98076723D02*
X133045714Y-98171961D01*
X133045714Y-98171961D02*
X133140952Y-98267200D01*
X133140952Y-98267200D02*
X133283809Y-98314819D01*
X133283809Y-98314819D02*
X133379047Y-98314819D01*
X133379047Y-98314819D02*
X133521904Y-98267200D01*
X133521904Y-98267200D02*
X133569523Y-98219580D01*
X133569523Y-98219580D02*
X133569523Y-97886247D01*
X133569523Y-97886247D02*
X133379047Y-97886247D01*
X132498095Y-99854819D02*
X133117142Y-99854819D01*
X133117142Y-99854819D02*
X132783809Y-100235771D01*
X132783809Y-100235771D02*
X132926666Y-100235771D01*
X132926666Y-100235771D02*
X133021904Y-100283390D01*
X133021904Y-100283390D02*
X133069523Y-100331009D01*
X133069523Y-100331009D02*
X133117142Y-100426247D01*
X133117142Y-100426247D02*
X133117142Y-100664342D01*
X133117142Y-100664342D02*
X133069523Y-100759580D01*
X133069523Y-100759580D02*
X133021904Y-100807200D01*
X133021904Y-100807200D02*
X132926666Y-100854819D01*
X132926666Y-100854819D02*
X132640952Y-100854819D01*
X132640952Y-100854819D02*
X132545714Y-100807200D01*
X132545714Y-100807200D02*
X132498095Y-100759580D01*
X133402857Y-99854819D02*
X133736190Y-100854819D01*
X133736190Y-100854819D02*
X134069523Y-99854819D01*
X109638095Y-89694819D02*
X110257142Y-89694819D01*
X110257142Y-89694819D02*
X109923809Y-90075771D01*
X109923809Y-90075771D02*
X110066666Y-90075771D01*
X110066666Y-90075771D02*
X110161904Y-90123390D01*
X110161904Y-90123390D02*
X110209523Y-90171009D01*
X110209523Y-90171009D02*
X110257142Y-90266247D01*
X110257142Y-90266247D02*
X110257142Y-90504342D01*
X110257142Y-90504342D02*
X110209523Y-90599580D01*
X110209523Y-90599580D02*
X110161904Y-90647200D01*
X110161904Y-90647200D02*
X110066666Y-90694819D01*
X110066666Y-90694819D02*
X109780952Y-90694819D01*
X109780952Y-90694819D02*
X109685714Y-90647200D01*
X109685714Y-90647200D02*
X109638095Y-90599580D01*
X110542857Y-89694819D02*
X110876190Y-90694819D01*
X110876190Y-90694819D02*
X111209523Y-89694819D01*
X109638095Y-72867200D02*
X109780952Y-72914819D01*
X109780952Y-72914819D02*
X110019047Y-72914819D01*
X110019047Y-72914819D02*
X110114285Y-72867200D01*
X110114285Y-72867200D02*
X110161904Y-72819580D01*
X110161904Y-72819580D02*
X110209523Y-72724342D01*
X110209523Y-72724342D02*
X110209523Y-72629104D01*
X110209523Y-72629104D02*
X110161904Y-72533866D01*
X110161904Y-72533866D02*
X110114285Y-72486247D01*
X110114285Y-72486247D02*
X110019047Y-72438628D01*
X110019047Y-72438628D02*
X109828571Y-72391009D01*
X109828571Y-72391009D02*
X109733333Y-72343390D01*
X109733333Y-72343390D02*
X109685714Y-72295771D01*
X109685714Y-72295771D02*
X109638095Y-72200533D01*
X109638095Y-72200533D02*
X109638095Y-72105295D01*
X109638095Y-72105295D02*
X109685714Y-72010057D01*
X109685714Y-72010057D02*
X109733333Y-71962438D01*
X109733333Y-71962438D02*
X109828571Y-71914819D01*
X109828571Y-71914819D02*
X110066666Y-71914819D01*
X110066666Y-71914819D02*
X110209523Y-71962438D01*
X110542857Y-71914819D02*
X111161904Y-71914819D01*
X111161904Y-71914819D02*
X110828571Y-72295771D01*
X110828571Y-72295771D02*
X110971428Y-72295771D01*
X110971428Y-72295771D02*
X111066666Y-72343390D01*
X111066666Y-72343390D02*
X111114285Y-72391009D01*
X111114285Y-72391009D02*
X111161904Y-72486247D01*
X111161904Y-72486247D02*
X111161904Y-72724342D01*
X111161904Y-72724342D02*
X111114285Y-72819580D01*
X111114285Y-72819580D02*
X111066666Y-72867200D01*
X111066666Y-72867200D02*
X110971428Y-72914819D01*
X110971428Y-72914819D02*
X110685714Y-72914819D01*
X110685714Y-72914819D02*
X110590476Y-72867200D01*
X110590476Y-72867200D02*
X110542857Y-72819580D01*
X109542857Y-69374819D02*
X109876190Y-70374819D01*
X109876190Y-70374819D02*
X110209523Y-69374819D01*
X110542857Y-69374819D02*
X110542857Y-70184342D01*
X110542857Y-70184342D02*
X110590476Y-70279580D01*
X110590476Y-70279580D02*
X110638095Y-70327200D01*
X110638095Y-70327200D02*
X110733333Y-70374819D01*
X110733333Y-70374819D02*
X110923809Y-70374819D01*
X110923809Y-70374819D02*
X111019047Y-70327200D01*
X111019047Y-70327200D02*
X111066666Y-70279580D01*
X111066666Y-70279580D02*
X111114285Y-70184342D01*
X111114285Y-70184342D02*
X111114285Y-69374819D01*
X110661904Y-66882438D02*
X110566666Y-66834819D01*
X110566666Y-66834819D02*
X110423809Y-66834819D01*
X110423809Y-66834819D02*
X110280952Y-66882438D01*
X110280952Y-66882438D02*
X110185714Y-66977676D01*
X110185714Y-66977676D02*
X110138095Y-67072914D01*
X110138095Y-67072914D02*
X110090476Y-67263390D01*
X110090476Y-67263390D02*
X110090476Y-67406247D01*
X110090476Y-67406247D02*
X110138095Y-67596723D01*
X110138095Y-67596723D02*
X110185714Y-67691961D01*
X110185714Y-67691961D02*
X110280952Y-67787200D01*
X110280952Y-67787200D02*
X110423809Y-67834819D01*
X110423809Y-67834819D02*
X110519047Y-67834819D01*
X110519047Y-67834819D02*
X110661904Y-67787200D01*
X110661904Y-67787200D02*
X110709523Y-67739580D01*
X110709523Y-67739580D02*
X110709523Y-67406247D01*
X110709523Y-67406247D02*
X110519047Y-67406247D01*
X132521905Y-83074819D02*
X132521905Y-82074819D01*
X132521905Y-82074819D02*
X132760000Y-82074819D01*
X132760000Y-82074819D02*
X132902857Y-82122438D01*
X132902857Y-82122438D02*
X132998095Y-82217676D01*
X132998095Y-82217676D02*
X133045714Y-82312914D01*
X133045714Y-82312914D02*
X133093333Y-82503390D01*
X133093333Y-82503390D02*
X133093333Y-82646247D01*
X133093333Y-82646247D02*
X133045714Y-82836723D01*
X133045714Y-82836723D02*
X132998095Y-82931961D01*
X132998095Y-82931961D02*
X132902857Y-83027200D01*
X132902857Y-83027200D02*
X132760000Y-83074819D01*
X132760000Y-83074819D02*
X132521905Y-83074819D01*
X133998095Y-82074819D02*
X133521905Y-82074819D01*
X133521905Y-82074819D02*
X133474286Y-82551009D01*
X133474286Y-82551009D02*
X133521905Y-82503390D01*
X133521905Y-82503390D02*
X133617143Y-82455771D01*
X133617143Y-82455771D02*
X133855238Y-82455771D01*
X133855238Y-82455771D02*
X133950476Y-82503390D01*
X133950476Y-82503390D02*
X133998095Y-82551009D01*
X133998095Y-82551009D02*
X134045714Y-82646247D01*
X134045714Y-82646247D02*
X134045714Y-82884342D01*
X134045714Y-82884342D02*
X133998095Y-82979580D01*
X133998095Y-82979580D02*
X133950476Y-83027200D01*
X133950476Y-83027200D02*
X133855238Y-83074819D01*
X133855238Y-83074819D02*
X133617143Y-83074819D01*
X133617143Y-83074819D02*
X133521905Y-83027200D01*
X133521905Y-83027200D02*
X133474286Y-82979580D01*
X110661904Y-97362438D02*
X110566666Y-97314819D01*
X110566666Y-97314819D02*
X110423809Y-97314819D01*
X110423809Y-97314819D02*
X110280952Y-97362438D01*
X110280952Y-97362438D02*
X110185714Y-97457676D01*
X110185714Y-97457676D02*
X110138095Y-97552914D01*
X110138095Y-97552914D02*
X110090476Y-97743390D01*
X110090476Y-97743390D02*
X110090476Y-97886247D01*
X110090476Y-97886247D02*
X110138095Y-98076723D01*
X110138095Y-98076723D02*
X110185714Y-98171961D01*
X110185714Y-98171961D02*
X110280952Y-98267200D01*
X110280952Y-98267200D02*
X110423809Y-98314819D01*
X110423809Y-98314819D02*
X110519047Y-98314819D01*
X110519047Y-98314819D02*
X110661904Y-98267200D01*
X110661904Y-98267200D02*
X110709523Y-98219580D01*
X110709523Y-98219580D02*
X110709523Y-97886247D01*
X110709523Y-97886247D02*
X110519047Y-97886247D01*
X132521905Y-85614819D02*
X132521905Y-84614819D01*
X132521905Y-84614819D02*
X132760000Y-84614819D01*
X132760000Y-84614819D02*
X132902857Y-84662438D01*
X132902857Y-84662438D02*
X132998095Y-84757676D01*
X132998095Y-84757676D02*
X133045714Y-84852914D01*
X133045714Y-84852914D02*
X133093333Y-85043390D01*
X133093333Y-85043390D02*
X133093333Y-85186247D01*
X133093333Y-85186247D02*
X133045714Y-85376723D01*
X133045714Y-85376723D02*
X132998095Y-85471961D01*
X132998095Y-85471961D02*
X132902857Y-85567200D01*
X132902857Y-85567200D02*
X132760000Y-85614819D01*
X132760000Y-85614819D02*
X132521905Y-85614819D01*
X133950476Y-84614819D02*
X133760000Y-84614819D01*
X133760000Y-84614819D02*
X133664762Y-84662438D01*
X133664762Y-84662438D02*
X133617143Y-84710057D01*
X133617143Y-84710057D02*
X133521905Y-84852914D01*
X133521905Y-84852914D02*
X133474286Y-85043390D01*
X133474286Y-85043390D02*
X133474286Y-85424342D01*
X133474286Y-85424342D02*
X133521905Y-85519580D01*
X133521905Y-85519580D02*
X133569524Y-85567200D01*
X133569524Y-85567200D02*
X133664762Y-85614819D01*
X133664762Y-85614819D02*
X133855238Y-85614819D01*
X133855238Y-85614819D02*
X133950476Y-85567200D01*
X133950476Y-85567200D02*
X133998095Y-85519580D01*
X133998095Y-85519580D02*
X134045714Y-85424342D01*
X134045714Y-85424342D02*
X134045714Y-85186247D01*
X134045714Y-85186247D02*
X133998095Y-85091009D01*
X133998095Y-85091009D02*
X133950476Y-85043390D01*
X133950476Y-85043390D02*
X133855238Y-84995771D01*
X133855238Y-84995771D02*
X133664762Y-84995771D01*
X133664762Y-84995771D02*
X133569524Y-85043390D01*
X133569524Y-85043390D02*
X133521905Y-85091009D01*
X133521905Y-85091009D02*
X133474286Y-85186247D01*
D10*
%TO.C,BME688*%
X153160000Y-69200000D02*
X140460000Y-69200000D01*
X137920000Y-71740000D02*
X137920000Y-92060000D01*
X155700000Y-92060000D02*
X155700000Y-71740000D01*
X140460000Y-94600000D02*
X153160000Y-94600000D01*
X153160000Y-69200000D02*
G75*
G02*
X155700000Y-71740000I-1J-2540001D01*
G01*
X137920000Y-71740000D02*
G75*
G02*
X140460000Y-69200000I2540001J-1D01*
G01*
X155700000Y-92060000D02*
G75*
G02*
X153160000Y-94600000I-2540000J0D01*
G01*
X140460000Y-94600000D02*
G75*
G02*
X137920000Y-92060000I0J2540000D01*
G01*
D12*
%TO.C,NodeMCU-ESP8266*%
X106580000Y-54660000D02*
X106580000Y-111660000D01*
X106580000Y-111660000D02*
X137080000Y-111660000D01*
X107080000Y-54660000D02*
X106580000Y-54660000D01*
X137080000Y-54660000D02*
X107080000Y-54660000D01*
X137080000Y-111660000D02*
X137080000Y-54660000D01*
X110926051Y-57220000D02*
G75*
G02*
X107333949Y-57220000I-1796051J0D01*
G01*
X107333949Y-57220000D02*
G75*
G02*
X110926051Y-57220000I1796051J0D01*
G01*
X110926051Y-109290000D02*
G75*
G02*
X107333949Y-109290000I-1796051J0D01*
G01*
X107333949Y-109290000D02*
G75*
G02*
X110926051Y-109290000I1796051J0D01*
G01*
X136326051Y-57220000D02*
G75*
G02*
X132733949Y-57220000I-1796051J0D01*
G01*
X132733949Y-57220000D02*
G75*
G02*
X136326051Y-57220000I1796051J0D01*
G01*
X136326051Y-109290000D02*
G75*
G02*
X132733949Y-109290000I-1796051J0D01*
G01*
X132733949Y-109290000D02*
G75*
G02*
X136326051Y-109290000I1796051J0D01*
G01*
%TD*%
D13*
%TO.C,NodeMCU-ESP8266*%
X107860000Y-64840000D03*
X107860000Y-67380000D03*
X107860000Y-69920000D03*
X107860000Y-72460000D03*
X107860000Y-75000000D03*
X107860000Y-77540000D03*
X107860000Y-80080000D03*
X107860000Y-82620000D03*
X107860000Y-85160000D03*
X107860000Y-87700000D03*
X107860000Y-90240000D03*
X107860000Y-92780000D03*
X107860000Y-95320000D03*
X107860000Y-97860000D03*
X107860000Y-100400000D03*
X135800000Y-100400000D03*
X135800000Y-97860000D03*
X135800000Y-95320000D03*
X135800000Y-92780000D03*
X135800000Y-90240000D03*
X135800000Y-87700000D03*
X135800000Y-85160000D03*
X135800000Y-82620000D03*
X135800000Y-80080000D03*
X135800000Y-77540000D03*
X135800000Y-75000000D03*
X135800000Y-72460000D03*
X135800000Y-69920000D03*
X135800000Y-67380000D03*
X135800000Y-64840000D03*
%TD*%
%LPC*%
D14*
%TO.C,BME688*%
X140460000Y-74280000D03*
X140460000Y-76820000D03*
X140460000Y-79360000D03*
X140460000Y-81900000D03*
X140460000Y-84440000D03*
X140460000Y-86980000D03*
X140460000Y-89520000D03*
D15*
X153160000Y-71740000D03*
X153160000Y-92060000D03*
%TD*%
D13*
%TO.C,NodeMCU-ESP8266*%
X107860000Y-64840000D03*
X107860000Y-67380000D03*
X107860000Y-69920000D03*
X107860000Y-72460000D03*
X107860000Y-75000000D03*
X107860000Y-77540000D03*
X107860000Y-80080000D03*
X107860000Y-82620000D03*
X107860000Y-85160000D03*
X107860000Y-87700000D03*
X107860000Y-90240000D03*
X107860000Y-92780000D03*
X107860000Y-95320000D03*
X107860000Y-97860000D03*
X107860000Y-100400000D03*
X135800000Y-100400000D03*
X135800000Y-97860000D03*
X135800000Y-95320000D03*
X135800000Y-92780000D03*
X135800000Y-90240000D03*
X135800000Y-87700000D03*
X135800000Y-85160000D03*
X135800000Y-82620000D03*
X135800000Y-80080000D03*
X135800000Y-77540000D03*
X135800000Y-75000000D03*
X135800000Y-72460000D03*
X135800000Y-69920000D03*
X135800000Y-67380000D03*
X135800000Y-64840000D03*
%TD*%
%LPD*%
M02*
