%TF.GenerationSoftware,KiCad,Pcbnew,8.0.3*%
%TF.CreationDate,2024-07-11T16:06:48-07:00*%
%TF.ProjectId,RomiEnvironDetector,526f6d69-456e-4766-9972-6f6e44657465,rev?*%
%TF.SameCoordinates,Original*%
%TF.FileFunction,Copper,L2,Bot*%
%TF.FilePolarity,Positive*%
%FSLAX46Y46*%
G04 Gerber Fmt 4.6, Leading zero omitted, Abs format (unit mm)*
G04 Created by KiCad (PCBNEW 8.0.3) date 2024-07-11 16:06:48*
%MOMM*%
%LPD*%
G01*
G04 APERTURE LIST*
%TA.AperFunction,ComponentPad*%
%ADD10C,1.778000*%
%TD*%
%TA.AperFunction,ComponentPad*%
%ADD11C,3.200000*%
%TD*%
%TA.AperFunction,ComponentPad*%
%ADD12C,1.524000*%
%TD*%
G04 APERTURE END LIST*
D10*
%TO.P,BME688,1,VIN*%
%TO.N,Net-(BME688-VIN)*%
X140460000Y-74280000D03*
%TO.P,BME688,2,3Vo*%
%TO.N,unconnected-(BME688-3Vo-Pad2)*%
X140460000Y-76820000D03*
%TO.P,BME688,3,GND*%
%TO.N,GND*%
X140460000Y-79360000D03*
%TO.P,BME688,4,SCK*%
%TO.N,Net-(BME688-SCK)*%
X140460000Y-81900000D03*
%TO.P,BME688,5,SD0*%
%TO.N,unconnected-(BME688-SD0-Pad5)*%
X140460000Y-84440000D03*
%TO.P,BME688,6,SDI*%
%TO.N,Net-(BME688-SDI)*%
X140460000Y-86980000D03*
%TO.P,BME688,7,CS*%
%TO.N,unconnected-(BME688-CS-Pad7)*%
X140460000Y-89520000D03*
D11*
%TO.P,BME688,P$1*%
%TO.N,N/C*%
X153160000Y-71740000D03*
X153160000Y-92060000D03*
%TD*%
D12*
%TO.P,NodeMCU-ESP8266,1,A0*%
%TO.N,unconnected-(NodeMCU-ESP8266-A0-Pad1)*%
X107860000Y-64840000D03*
%TO.P,NodeMCU-ESP8266,2,G*%
%TO.N,unconnected-(NodeMCU-ESP8266-G-Pad2)*%
X107860000Y-67380000D03*
%TO.P,NodeMCU-ESP8266,3,VU*%
%TO.N,unconnected-(NodeMCU-ESP8266-VU-Pad3)*%
X107860000Y-69920000D03*
%TO.P,NodeMCU-ESP8266,4,S3*%
%TO.N,unconnected-(NodeMCU-ESP8266-S3-Pad4)*%
X107860000Y-72460000D03*
%TO.P,NodeMCU-ESP8266,5,S2*%
%TO.N,unconnected-(NodeMCU-ESP8266-S2-Pad5)*%
X107860000Y-75000000D03*
%TO.P,NodeMCU-ESP8266,6,S1*%
%TO.N,unconnected-(NodeMCU-ESP8266-S1-Pad6)*%
X107860000Y-77540000D03*
%TO.P,NodeMCU-ESP8266,7,SC*%
%TO.N,unconnected-(NodeMCU-ESP8266-SC-Pad7)*%
X107860000Y-80080000D03*
%TO.P,NodeMCU-ESP8266,8,S0*%
%TO.N,unconnected-(NodeMCU-ESP8266-S0-Pad8)*%
X107860000Y-82620000D03*
%TO.P,NodeMCU-ESP8266,9,SK*%
%TO.N,unconnected-(NodeMCU-ESP8266-SK-Pad9)*%
X107860000Y-85160000D03*
%TO.P,NodeMCU-ESP8266,10,G*%
%TO.N,unconnected-(NodeMCU-ESP8266-G-Pad10)*%
X107860000Y-87700000D03*
%TO.P,NodeMCU-ESP8266,11,3V*%
%TO.N,unconnected-(NodeMCU-ESP8266-3V-Pad11)*%
X107860000Y-90240000D03*
%TO.P,NodeMCU-ESP8266,12,EN*%
%TO.N,unconnected-(NodeMCU-ESP8266-EN-Pad12)*%
X107860000Y-92780000D03*
%TO.P,NodeMCU-ESP8266,13,RST*%
%TO.N,unconnected-(NodeMCU-ESP8266-RST-Pad13)*%
X107860000Y-95320000D03*
%TO.P,NodeMCU-ESP8266,14,G*%
%TO.N,unconnected-(NodeMCU-ESP8266-G-Pad14)*%
X107860000Y-97860000D03*
%TO.P,NodeMCU-ESP8266,15,VIN*%
%TO.N,unconnected-(NodeMCU-ESP8266-VIN-Pad15)*%
X107860000Y-100400000D03*
%TO.P,NodeMCU-ESP8266,16,3V*%
%TO.N,Net-(BME688-VIN)*%
X135800000Y-100400000D03*
%TO.P,NodeMCU-ESP8266,17,G*%
%TO.N,GND*%
X135800000Y-97860000D03*
%TO.P,NodeMCU-ESP8266,18,TX*%
%TO.N,unconnected-(NodeMCU-ESP8266-TX-Pad18)*%
X135800000Y-95320000D03*
%TO.P,NodeMCU-ESP8266,19,RX*%
%TO.N,unconnected-(NodeMCU-ESP8266-RX-Pad19)*%
X135800000Y-92780000D03*
%TO.P,NodeMCU-ESP8266,20,D8*%
%TO.N,unconnected-(NodeMCU-ESP8266-D8-Pad20)*%
X135800000Y-90240000D03*
%TO.P,NodeMCU-ESP8266,21,D7*%
%TO.N,unconnected-(NodeMCU-ESP8266-D7-Pad21)*%
X135800000Y-87700000D03*
%TO.P,NodeMCU-ESP8266,22,D6*%
%TO.N,unconnected-(NodeMCU-ESP8266-D6-Pad22)*%
X135800000Y-85160000D03*
%TO.P,NodeMCU-ESP8266,23,D5*%
%TO.N,unconnected-(NodeMCU-ESP8266-D5-Pad23)*%
X135800000Y-82620000D03*
%TO.P,NodeMCU-ESP8266,24,G*%
%TO.N,unconnected-(NodeMCU-ESP8266-G-Pad24)*%
X135800000Y-80080000D03*
%TO.P,NodeMCU-ESP8266,25,3V*%
%TO.N,unconnected-(NodeMCU-ESP8266-3V-Pad25)*%
X135800000Y-77540000D03*
%TO.P,NodeMCU-ESP8266,26,D4*%
%TO.N,unconnected-(NodeMCU-ESP8266-D4-Pad26)*%
X135800000Y-75000000D03*
%TO.P,NodeMCU-ESP8266,27,D3*%
%TO.N,unconnected-(NodeMCU-ESP8266-D3-Pad27)*%
X135800000Y-72460000D03*
%TO.P,NodeMCU-ESP8266,28,D2*%
%TO.N,Net-(BME688-SDI)*%
X135800000Y-69920000D03*
%TO.P,NodeMCU-ESP8266,29,D1*%
%TO.N,Net-(BME688-SCK)*%
X135800000Y-67380000D03*
%TO.P,NodeMCU-ESP8266,30,D0*%
%TO.N,unconnected-(NodeMCU-ESP8266-D0-Pad30)*%
X135800000Y-64840000D03*
%TD*%
%TA.AperFunction,Conductor*%
%TO.N,GND*%
G36*
X155442539Y-54920185D02*
G01*
X155488294Y-54972989D01*
X155499500Y-55024500D01*
X155499500Y-71532436D01*
X155479815Y-71599475D01*
X155427011Y-71645230D01*
X155357853Y-71655174D01*
X155294297Y-71626149D01*
X155256523Y-71567371D01*
X155251789Y-71540898D01*
X155248251Y-71489174D01*
X155245798Y-71453314D01*
X155187334Y-71171968D01*
X155091105Y-70901206D01*
X155091106Y-70901206D01*
X154958901Y-70646064D01*
X154793187Y-70411299D01*
X154714554Y-70327105D01*
X154597053Y-70201292D01*
X154374147Y-70019945D01*
X154374146Y-70019944D01*
X154128617Y-69870634D01*
X153865063Y-69756158D01*
X153865061Y-69756157D01*
X153865058Y-69756156D01*
X153735578Y-69719877D01*
X153588364Y-69678630D01*
X153588359Y-69678629D01*
X153588358Y-69678629D01*
X153446018Y-69659064D01*
X153303679Y-69639500D01*
X153303678Y-69639500D01*
X153016322Y-69639500D01*
X153016321Y-69639500D01*
X152731642Y-69678629D01*
X152731635Y-69678630D01*
X152523861Y-69736845D01*
X152454942Y-69756156D01*
X152454939Y-69756156D01*
X152454936Y-69756158D01*
X152454935Y-69756158D01*
X152191382Y-69870634D01*
X151945853Y-70019944D01*
X151722950Y-70201289D01*
X151526812Y-70411299D01*
X151361098Y-70646064D01*
X151228894Y-70901206D01*
X151132667Y-71171962D01*
X151132666Y-71171965D01*
X151074201Y-71453319D01*
X151054592Y-71740000D01*
X151074201Y-72026680D01*
X151132666Y-72308034D01*
X151132667Y-72308037D01*
X151228894Y-72578793D01*
X151228893Y-72578793D01*
X151361098Y-72833935D01*
X151526812Y-73068700D01*
X151567972Y-73112771D01*
X151722947Y-73278708D01*
X151901077Y-73423627D01*
X151945853Y-73460055D01*
X152191382Y-73609365D01*
X152316683Y-73663790D01*
X152454942Y-73723844D01*
X152731642Y-73801371D01*
X152981920Y-73835771D01*
X153016321Y-73840500D01*
X153016322Y-73840500D01*
X153303679Y-73840500D01*
X153334370Y-73836281D01*
X153588358Y-73801371D01*
X153865058Y-73723844D01*
X154007127Y-73662135D01*
X154128617Y-73609365D01*
X154128620Y-73609363D01*
X154128625Y-73609361D01*
X154374147Y-73460055D01*
X154597053Y-73278708D01*
X154793189Y-73068698D01*
X154958901Y-72833936D01*
X155091104Y-72578797D01*
X155187334Y-72308032D01*
X155245798Y-72026686D01*
X155251789Y-71939100D01*
X155276003Y-71873561D01*
X155331806Y-71831516D01*
X155401482Y-71826316D01*
X155462909Y-71859610D01*
X155496584Y-71920829D01*
X155499500Y-71947563D01*
X155499500Y-91852436D01*
X155479815Y-91919475D01*
X155427011Y-91965230D01*
X155357853Y-91975174D01*
X155294297Y-91946149D01*
X155256523Y-91887371D01*
X155251789Y-91860898D01*
X155248251Y-91809174D01*
X155245798Y-91773314D01*
X155187334Y-91491968D01*
X155091105Y-91221206D01*
X155091106Y-91221206D01*
X154958901Y-90966064D01*
X154793187Y-90731299D01*
X154714554Y-90647105D01*
X154597053Y-90521292D01*
X154418923Y-90376373D01*
X154374146Y-90339944D01*
X154128617Y-90190634D01*
X153865063Y-90076158D01*
X153865061Y-90076157D01*
X153865058Y-90076156D01*
X153735578Y-90039877D01*
X153588364Y-89998630D01*
X153588359Y-89998629D01*
X153588358Y-89998629D01*
X153399830Y-89972716D01*
X153303679Y-89959500D01*
X153303678Y-89959500D01*
X153016322Y-89959500D01*
X153016321Y-89959500D01*
X152731642Y-89998629D01*
X152731635Y-89998630D01*
X152523861Y-90056845D01*
X152454942Y-90076156D01*
X152454939Y-90076156D01*
X152454936Y-90076158D01*
X152454935Y-90076158D01*
X152191382Y-90190634D01*
X151945853Y-90339944D01*
X151722950Y-90521289D01*
X151526812Y-90731299D01*
X151361098Y-90966064D01*
X151228894Y-91221206D01*
X151132667Y-91491962D01*
X151132666Y-91491965D01*
X151074201Y-91773319D01*
X151054592Y-92060000D01*
X151074201Y-92346680D01*
X151132666Y-92628034D01*
X151132667Y-92628037D01*
X151228894Y-92898793D01*
X151228893Y-92898793D01*
X151361098Y-93153935D01*
X151526812Y-93388700D01*
X151611923Y-93479831D01*
X151722947Y-93598708D01*
X151909923Y-93750824D01*
X151945853Y-93780055D01*
X152191382Y-93929365D01*
X152316683Y-93983790D01*
X152454942Y-94043844D01*
X152731642Y-94121371D01*
X152981920Y-94155771D01*
X153016321Y-94160500D01*
X153016322Y-94160500D01*
X153303679Y-94160500D01*
X153334370Y-94156281D01*
X153588358Y-94121371D01*
X153865058Y-94043844D01*
X154007127Y-93982135D01*
X154128617Y-93929365D01*
X154128620Y-93929363D01*
X154128625Y-93929361D01*
X154374147Y-93780055D01*
X154597053Y-93598708D01*
X154793189Y-93388698D01*
X154958901Y-93153936D01*
X155091104Y-92898797D01*
X155187334Y-92628032D01*
X155245798Y-92346686D01*
X155251789Y-92259100D01*
X155276003Y-92193561D01*
X155331806Y-92151516D01*
X155401482Y-92146316D01*
X155462909Y-92179610D01*
X155496584Y-92240829D01*
X155499500Y-92267563D01*
X155499500Y-111375500D01*
X155479815Y-111442539D01*
X155427011Y-111488294D01*
X155375500Y-111499500D01*
X127724000Y-111499500D01*
X127656961Y-111479815D01*
X127611206Y-111427011D01*
X127600000Y-111375500D01*
X127600000Y-64839997D01*
X134532677Y-64839997D01*
X134532677Y-64840002D01*
X134551929Y-65060062D01*
X134551930Y-65060070D01*
X134609104Y-65273445D01*
X134609105Y-65273447D01*
X134609106Y-65273450D01*
X134702466Y-65473662D01*
X134702468Y-65473666D01*
X134829170Y-65654615D01*
X134829175Y-65654621D01*
X134985378Y-65810824D01*
X134985384Y-65810829D01*
X135166333Y-65937531D01*
X135166335Y-65937532D01*
X135166338Y-65937534D01*
X135285748Y-65993215D01*
X135295189Y-65997618D01*
X135347628Y-66043790D01*
X135366780Y-66110984D01*
X135346564Y-66177865D01*
X135295189Y-66222382D01*
X135166340Y-66282465D01*
X135166338Y-66282466D01*
X134985377Y-66409175D01*
X134829175Y-66565377D01*
X134702466Y-66746338D01*
X134702465Y-66746340D01*
X134609107Y-66946548D01*
X134609104Y-66946554D01*
X134551930Y-67159929D01*
X134551929Y-67159937D01*
X134532677Y-67379997D01*
X134532677Y-67380002D01*
X134551929Y-67600062D01*
X134551930Y-67600070D01*
X134609104Y-67813445D01*
X134609105Y-67813447D01*
X134609106Y-67813450D01*
X134702466Y-68013662D01*
X134702468Y-68013666D01*
X134829170Y-68194615D01*
X134829175Y-68194621D01*
X134985378Y-68350824D01*
X134985384Y-68350829D01*
X135166333Y-68477531D01*
X135166335Y-68477532D01*
X135166338Y-68477534D01*
X135285748Y-68533215D01*
X135295189Y-68537618D01*
X135347628Y-68583790D01*
X135366780Y-68650984D01*
X135346564Y-68717865D01*
X135295189Y-68762382D01*
X135166340Y-68822465D01*
X135166338Y-68822466D01*
X134985377Y-68949175D01*
X134829175Y-69105377D01*
X134702466Y-69286338D01*
X134702465Y-69286340D01*
X134609107Y-69486548D01*
X134609104Y-69486554D01*
X134551930Y-69699929D01*
X134551929Y-69699937D01*
X134532677Y-69919997D01*
X134532677Y-69920002D01*
X134551929Y-70140062D01*
X134551930Y-70140070D01*
X134609104Y-70353445D01*
X134609105Y-70353447D01*
X134609106Y-70353450D01*
X134636083Y-70411302D01*
X134702466Y-70553662D01*
X134702468Y-70553666D01*
X134829170Y-70734615D01*
X134829175Y-70734621D01*
X134985378Y-70890824D01*
X134985384Y-70890829D01*
X135166333Y-71017531D01*
X135166335Y-71017532D01*
X135166338Y-71017534D01*
X135285748Y-71073215D01*
X135295189Y-71077618D01*
X135347628Y-71123790D01*
X135366780Y-71190984D01*
X135346564Y-71257865D01*
X135295189Y-71302382D01*
X135166340Y-71362465D01*
X135166338Y-71362466D01*
X134985377Y-71489175D01*
X134829175Y-71645377D01*
X134702466Y-71826338D01*
X134702465Y-71826340D01*
X134609107Y-72026548D01*
X134609104Y-72026554D01*
X134551930Y-72239929D01*
X134551929Y-72239937D01*
X134532677Y-72459997D01*
X134532677Y-72460002D01*
X134551929Y-72680062D01*
X134551930Y-72680070D01*
X134609104Y-72893445D01*
X134609105Y-72893447D01*
X134609106Y-72893450D01*
X134660269Y-73003169D01*
X134702466Y-73093662D01*
X134702468Y-73093666D01*
X134829170Y-73274615D01*
X134829175Y-73274621D01*
X134985378Y-73430824D01*
X134985384Y-73430829D01*
X135166333Y-73557531D01*
X135166335Y-73557532D01*
X135166338Y-73557534D01*
X135277482Y-73609361D01*
X135295189Y-73617618D01*
X135347628Y-73663790D01*
X135366780Y-73730984D01*
X135346564Y-73797865D01*
X135295189Y-73842382D01*
X135166340Y-73902465D01*
X135166338Y-73902466D01*
X134985377Y-74029175D01*
X134829175Y-74185377D01*
X134702466Y-74366338D01*
X134702465Y-74366340D01*
X134609107Y-74566548D01*
X134609104Y-74566554D01*
X134551930Y-74779929D01*
X134551929Y-74779937D01*
X134532677Y-74999997D01*
X134532677Y-75000002D01*
X134551929Y-75220062D01*
X134551930Y-75220070D01*
X134609104Y-75433445D01*
X134609105Y-75433447D01*
X134609106Y-75433450D01*
X134687082Y-75600670D01*
X134702466Y-75633662D01*
X134702468Y-75633666D01*
X134829170Y-75814615D01*
X134829175Y-75814621D01*
X134985378Y-75970824D01*
X134985384Y-75970829D01*
X135166333Y-76097531D01*
X135166335Y-76097532D01*
X135166338Y-76097534D01*
X135285748Y-76153215D01*
X135295189Y-76157618D01*
X135347628Y-76203790D01*
X135366780Y-76270984D01*
X135346564Y-76337865D01*
X135295189Y-76382382D01*
X135166340Y-76442465D01*
X135166338Y-76442466D01*
X134985377Y-76569175D01*
X134829175Y-76725377D01*
X134702466Y-76906338D01*
X134702465Y-76906340D01*
X134609107Y-77106548D01*
X134609104Y-77106554D01*
X134551930Y-77319929D01*
X134551929Y-77319937D01*
X134532677Y-77539997D01*
X134532677Y-77540002D01*
X134551929Y-77760062D01*
X134551930Y-77760070D01*
X134609104Y-77973445D01*
X134609105Y-77973447D01*
X134609106Y-77973450D01*
X134654927Y-78071714D01*
X134702466Y-78173662D01*
X134702468Y-78173666D01*
X134829170Y-78354615D01*
X134829175Y-78354621D01*
X134985378Y-78510824D01*
X134985384Y-78510829D01*
X135166333Y-78637531D01*
X135166335Y-78637532D01*
X135166338Y-78637534D01*
X135285748Y-78693215D01*
X135295189Y-78697618D01*
X135347628Y-78743790D01*
X135366780Y-78810984D01*
X135346564Y-78877865D01*
X135295189Y-78922382D01*
X135166340Y-78982465D01*
X135166338Y-78982466D01*
X134985377Y-79109175D01*
X134829175Y-79265377D01*
X134702466Y-79446338D01*
X134702465Y-79446340D01*
X134609107Y-79646548D01*
X134609104Y-79646554D01*
X134551930Y-79859929D01*
X134551929Y-79859937D01*
X134532677Y-80079997D01*
X134532677Y-80080002D01*
X134551929Y-80300062D01*
X134551930Y-80300070D01*
X134609104Y-80513445D01*
X134609105Y-80513447D01*
X134609106Y-80513450D01*
X134654657Y-80611135D01*
X134702466Y-80713662D01*
X134702468Y-80713666D01*
X134829170Y-80894615D01*
X134829175Y-80894621D01*
X134985378Y-81050824D01*
X134985384Y-81050829D01*
X135166333Y-81177531D01*
X135166335Y-81177532D01*
X135166338Y-81177534D01*
X135285748Y-81233215D01*
X135295189Y-81237618D01*
X135347628Y-81283790D01*
X135366780Y-81350984D01*
X135346564Y-81417865D01*
X135295189Y-81462382D01*
X135166340Y-81522465D01*
X135166338Y-81522466D01*
X134985377Y-81649175D01*
X134829175Y-81805377D01*
X134702466Y-81986338D01*
X134702465Y-81986340D01*
X134609107Y-82186548D01*
X134609104Y-82186554D01*
X134551930Y-82399929D01*
X134551929Y-82399937D01*
X134532677Y-82619997D01*
X134532677Y-82620002D01*
X134551929Y-82840062D01*
X134551930Y-82840070D01*
X134609104Y-83053445D01*
X134609105Y-83053447D01*
X134609106Y-83053450D01*
X134687082Y-83220670D01*
X134702466Y-83253662D01*
X134702468Y-83253666D01*
X134829170Y-83434615D01*
X134829175Y-83434621D01*
X134985378Y-83590824D01*
X134985384Y-83590829D01*
X135166333Y-83717531D01*
X135166335Y-83717532D01*
X135166338Y-83717534D01*
X135285748Y-83773215D01*
X135295189Y-83777618D01*
X135347628Y-83823790D01*
X135366780Y-83890984D01*
X135346564Y-83957865D01*
X135295189Y-84002382D01*
X135166340Y-84062465D01*
X135166338Y-84062466D01*
X134985377Y-84189175D01*
X134829175Y-84345377D01*
X134702466Y-84526338D01*
X134702465Y-84526340D01*
X134609107Y-84726548D01*
X134609104Y-84726554D01*
X134551930Y-84939929D01*
X134551929Y-84939937D01*
X134532677Y-85159997D01*
X134532677Y-85160002D01*
X134551929Y-85380062D01*
X134551930Y-85380070D01*
X134609104Y-85593445D01*
X134609105Y-85593447D01*
X134609106Y-85593450D01*
X134687082Y-85760670D01*
X134702466Y-85793662D01*
X134702468Y-85793666D01*
X134829170Y-85974615D01*
X134829175Y-85974621D01*
X134985378Y-86130824D01*
X134985384Y-86130829D01*
X135166333Y-86257531D01*
X135166335Y-86257532D01*
X135166338Y-86257534D01*
X135285748Y-86313215D01*
X135295189Y-86317618D01*
X135347628Y-86363790D01*
X135366780Y-86430984D01*
X135346564Y-86497865D01*
X135295189Y-86542382D01*
X135166340Y-86602465D01*
X135166338Y-86602466D01*
X134985377Y-86729175D01*
X134829175Y-86885377D01*
X134702466Y-87066338D01*
X134702465Y-87066340D01*
X134609107Y-87266548D01*
X134609104Y-87266554D01*
X134551930Y-87479929D01*
X134551929Y-87479937D01*
X134532677Y-87699997D01*
X134532677Y-87700002D01*
X134551929Y-87920062D01*
X134551930Y-87920070D01*
X134609104Y-88133445D01*
X134609105Y-88133447D01*
X134609106Y-88133450D01*
X134687082Y-88300670D01*
X134702466Y-88333662D01*
X134702468Y-88333666D01*
X134829170Y-88514615D01*
X134829175Y-88514621D01*
X134985378Y-88670824D01*
X134985384Y-88670829D01*
X135166333Y-88797531D01*
X135166335Y-88797532D01*
X135166338Y-88797534D01*
X135285748Y-88853215D01*
X135295189Y-88857618D01*
X135347628Y-88903790D01*
X135366780Y-88970984D01*
X135346564Y-89037865D01*
X135295189Y-89082382D01*
X135166340Y-89142465D01*
X135166338Y-89142466D01*
X134985377Y-89269175D01*
X134829175Y-89425377D01*
X134702466Y-89606338D01*
X134702465Y-89606340D01*
X134609107Y-89806548D01*
X134609104Y-89806554D01*
X134551930Y-90019929D01*
X134551929Y-90019937D01*
X134532677Y-90239997D01*
X134532677Y-90240002D01*
X134551929Y-90460062D01*
X134551930Y-90460070D01*
X134609104Y-90673445D01*
X134609105Y-90673447D01*
X134609106Y-90673450D01*
X134666638Y-90796828D01*
X134702466Y-90873662D01*
X134702468Y-90873666D01*
X134829170Y-91054615D01*
X134829175Y-91054621D01*
X134985378Y-91210824D01*
X134985384Y-91210829D01*
X135166333Y-91337531D01*
X135166335Y-91337532D01*
X135166338Y-91337534D01*
X135285748Y-91393215D01*
X135295189Y-91397618D01*
X135347628Y-91443790D01*
X135366780Y-91510984D01*
X135346564Y-91577865D01*
X135295189Y-91622382D01*
X135166340Y-91682465D01*
X135166338Y-91682466D01*
X134985377Y-91809175D01*
X134829175Y-91965377D01*
X134702466Y-92146338D01*
X134702465Y-92146340D01*
X134609107Y-92346548D01*
X134609104Y-92346554D01*
X134551930Y-92559929D01*
X134551929Y-92559937D01*
X134532677Y-92779997D01*
X134532677Y-92780002D01*
X134551929Y-93000062D01*
X134551930Y-93000070D01*
X134609104Y-93213445D01*
X134609105Y-93213447D01*
X134609106Y-93213450D01*
X134690825Y-93388698D01*
X134702466Y-93413662D01*
X134702468Y-93413666D01*
X134829170Y-93594615D01*
X134829175Y-93594621D01*
X134985378Y-93750824D01*
X134985384Y-93750829D01*
X135166333Y-93877531D01*
X135166335Y-93877532D01*
X135166338Y-93877534D01*
X135277482Y-93929361D01*
X135295189Y-93937618D01*
X135347628Y-93983790D01*
X135366780Y-94050984D01*
X135346564Y-94117865D01*
X135295189Y-94162382D01*
X135166340Y-94222465D01*
X135166338Y-94222466D01*
X134985377Y-94349175D01*
X134829175Y-94505377D01*
X134702466Y-94686338D01*
X134702465Y-94686340D01*
X134609107Y-94886548D01*
X134609104Y-94886554D01*
X134551930Y-95099929D01*
X134551929Y-95099937D01*
X134532677Y-95319997D01*
X134532677Y-95320002D01*
X134551929Y-95540062D01*
X134551930Y-95540070D01*
X134609104Y-95753445D01*
X134609105Y-95753447D01*
X134609106Y-95753450D01*
X134702466Y-95953662D01*
X134702468Y-95953666D01*
X134829170Y-96134615D01*
X134829175Y-96134621D01*
X134985378Y-96290824D01*
X134985384Y-96290829D01*
X135166333Y-96417531D01*
X135166335Y-96417532D01*
X135166338Y-96417534D01*
X135295781Y-96477894D01*
X135348220Y-96524066D01*
X135367372Y-96591260D01*
X135347156Y-96658141D01*
X135295781Y-96702658D01*
X135166590Y-96762901D01*
X135101811Y-96808258D01*
X135772553Y-97479000D01*
X135749840Y-97479000D01*
X135652939Y-97504964D01*
X135566060Y-97555124D01*
X135495124Y-97626060D01*
X135444964Y-97712939D01*
X135419000Y-97809840D01*
X135419000Y-97832553D01*
X134748258Y-97161811D01*
X134702901Y-97226590D01*
X134609579Y-97426720D01*
X134609575Y-97426729D01*
X134552426Y-97640013D01*
X134552424Y-97640023D01*
X134533179Y-97859999D01*
X134533179Y-97860000D01*
X134552424Y-98079976D01*
X134552426Y-98079986D01*
X134609575Y-98293270D01*
X134609580Y-98293284D01*
X134702898Y-98493405D01*
X134702901Y-98493411D01*
X134748258Y-98558187D01*
X134748259Y-98558188D01*
X135419000Y-97887447D01*
X135419000Y-97910160D01*
X135444964Y-98007061D01*
X135495124Y-98093940D01*
X135566060Y-98164876D01*
X135652939Y-98215036D01*
X135749840Y-98241000D01*
X135772553Y-98241000D01*
X135101810Y-98911740D01*
X135166589Y-98957098D01*
X135295781Y-99017342D01*
X135348220Y-99063514D01*
X135367372Y-99130708D01*
X135347156Y-99197589D01*
X135295781Y-99242106D01*
X135166340Y-99302465D01*
X135166338Y-99302466D01*
X134985377Y-99429175D01*
X134829175Y-99585377D01*
X134702466Y-99766338D01*
X134702465Y-99766340D01*
X134609107Y-99966548D01*
X134609104Y-99966554D01*
X134551930Y-100179929D01*
X134551929Y-100179937D01*
X134532677Y-100399997D01*
X134532677Y-100400002D01*
X134551929Y-100620062D01*
X134551930Y-100620070D01*
X134609104Y-100833445D01*
X134609105Y-100833447D01*
X134609106Y-100833450D01*
X134702466Y-101033662D01*
X134702468Y-101033666D01*
X134829170Y-101214615D01*
X134829175Y-101214621D01*
X134985378Y-101370824D01*
X134985384Y-101370829D01*
X135166333Y-101497531D01*
X135166335Y-101497532D01*
X135166338Y-101497534D01*
X135366550Y-101590894D01*
X135579932Y-101648070D01*
X135737123Y-101661822D01*
X135799998Y-101667323D01*
X135800000Y-101667323D01*
X135800002Y-101667323D01*
X135855017Y-101662509D01*
X136020068Y-101648070D01*
X136233450Y-101590894D01*
X136433662Y-101497534D01*
X136614620Y-101370826D01*
X136770826Y-101214620D01*
X136897534Y-101033662D01*
X136990894Y-100833450D01*
X137048070Y-100620068D01*
X137067323Y-100400000D01*
X137048070Y-100179932D01*
X136990894Y-99966550D01*
X136897534Y-99766339D01*
X136770826Y-99585380D01*
X136614620Y-99429174D01*
X136614616Y-99429171D01*
X136614615Y-99429170D01*
X136433666Y-99302468D01*
X136433662Y-99302466D01*
X136304218Y-99242105D01*
X136251779Y-99195932D01*
X136232627Y-99128739D01*
X136252843Y-99061858D01*
X136304219Y-99017340D01*
X136433416Y-98957095D01*
X136433417Y-98957094D01*
X136498188Y-98911741D01*
X135827448Y-98241000D01*
X135850160Y-98241000D01*
X135947061Y-98215036D01*
X136033940Y-98164876D01*
X136104876Y-98093940D01*
X136155036Y-98007061D01*
X136181000Y-97910160D01*
X136181000Y-97887447D01*
X136851741Y-98558188D01*
X136897094Y-98493417D01*
X136897100Y-98493407D01*
X136990419Y-98293284D01*
X136990424Y-98293270D01*
X137047573Y-98079986D01*
X137047575Y-98079976D01*
X137066821Y-97860000D01*
X137066821Y-97859999D01*
X137047575Y-97640023D01*
X137047573Y-97640013D01*
X136990424Y-97426729D01*
X136990420Y-97426720D01*
X136897096Y-97226586D01*
X136851741Y-97161811D01*
X136851740Y-97161810D01*
X136181000Y-97832551D01*
X136181000Y-97809840D01*
X136155036Y-97712939D01*
X136104876Y-97626060D01*
X136033940Y-97555124D01*
X135947061Y-97504964D01*
X135850160Y-97479000D01*
X135827448Y-97479000D01*
X136498188Y-96808259D01*
X136498187Y-96808258D01*
X136433411Y-96762901D01*
X136433405Y-96762898D01*
X136304219Y-96702658D01*
X136251779Y-96656486D01*
X136232627Y-96589293D01*
X136252843Y-96522411D01*
X136304219Y-96477894D01*
X136433662Y-96417534D01*
X136614620Y-96290826D01*
X136770826Y-96134620D01*
X136897534Y-95953662D01*
X136990894Y-95753450D01*
X137048070Y-95540068D01*
X137067323Y-95320000D01*
X137048070Y-95099932D01*
X136990894Y-94886550D01*
X136897534Y-94686339D01*
X136770826Y-94505380D01*
X136614620Y-94349174D01*
X136614616Y-94349171D01*
X136614615Y-94349170D01*
X136433666Y-94222468D01*
X136433658Y-94222464D01*
X136304811Y-94162382D01*
X136252371Y-94116210D01*
X136233219Y-94049017D01*
X136253435Y-93982135D01*
X136304811Y-93937618D01*
X136310802Y-93934824D01*
X136433662Y-93877534D01*
X136614620Y-93750826D01*
X136770826Y-93594620D01*
X136897534Y-93413662D01*
X136990894Y-93213450D01*
X137048070Y-93000068D01*
X137067323Y-92780000D01*
X137048070Y-92559932D01*
X136990894Y-92346550D01*
X136897534Y-92146339D01*
X136770826Y-91965380D01*
X136614620Y-91809174D01*
X136614616Y-91809171D01*
X136614615Y-91809170D01*
X136433666Y-91682468D01*
X136433658Y-91682464D01*
X136304811Y-91622382D01*
X136252371Y-91576210D01*
X136233219Y-91509017D01*
X136253435Y-91442135D01*
X136304811Y-91397618D01*
X136310802Y-91394824D01*
X136433662Y-91337534D01*
X136614620Y-91210826D01*
X136770826Y-91054620D01*
X136897534Y-90873662D01*
X136990894Y-90673450D01*
X137048070Y-90460068D01*
X137067323Y-90240000D01*
X137048070Y-90019932D01*
X136990894Y-89806550D01*
X136897534Y-89606339D01*
X136770826Y-89425380D01*
X136614620Y-89269174D01*
X136614616Y-89269171D01*
X136614615Y-89269170D01*
X136433666Y-89142468D01*
X136433658Y-89142464D01*
X136304811Y-89082382D01*
X136252371Y-89036210D01*
X136233219Y-88969017D01*
X136253435Y-88902135D01*
X136304811Y-88857618D01*
X136310802Y-88854824D01*
X136433662Y-88797534D01*
X136614620Y-88670826D01*
X136770826Y-88514620D01*
X136897534Y-88333662D01*
X136990894Y-88133450D01*
X137048070Y-87920068D01*
X137067323Y-87700000D01*
X137048070Y-87479932D01*
X136990894Y-87266550D01*
X136897534Y-87066339D01*
X136770826Y-86885380D01*
X136614620Y-86729174D01*
X136614616Y-86729171D01*
X136614615Y-86729170D01*
X136433666Y-86602468D01*
X136433658Y-86602464D01*
X136304811Y-86542382D01*
X136252371Y-86496210D01*
X136233219Y-86429017D01*
X136253435Y-86362135D01*
X136304811Y-86317618D01*
X136310802Y-86314824D01*
X136433662Y-86257534D01*
X136614620Y-86130826D01*
X136770826Y-85974620D01*
X136897534Y-85793662D01*
X136990894Y-85593450D01*
X137048070Y-85380068D01*
X137067323Y-85160000D01*
X137048070Y-84939932D01*
X136990894Y-84726550D01*
X136897534Y-84526339D01*
X136770826Y-84345380D01*
X136614620Y-84189174D01*
X136614616Y-84189171D01*
X136614615Y-84189170D01*
X136433666Y-84062468D01*
X136433658Y-84062464D01*
X136304811Y-84002382D01*
X136252371Y-83956210D01*
X136233219Y-83889017D01*
X136253435Y-83822135D01*
X136304811Y-83777618D01*
X136310802Y-83774824D01*
X136433662Y-83717534D01*
X136614620Y-83590826D01*
X136770826Y-83434620D01*
X136897534Y-83253662D01*
X136990894Y-83053450D01*
X137048070Y-82840068D01*
X137067323Y-82620000D01*
X137048070Y-82399932D01*
X136990894Y-82186550D01*
X136897534Y-81986339D01*
X136770826Y-81805380D01*
X136614620Y-81649174D01*
X136614616Y-81649171D01*
X136614615Y-81649170D01*
X136433666Y-81522468D01*
X136433658Y-81522464D01*
X136304811Y-81462382D01*
X136252371Y-81416210D01*
X136233219Y-81349017D01*
X136253435Y-81282135D01*
X136304811Y-81237618D01*
X136310802Y-81234824D01*
X136433662Y-81177534D01*
X136614620Y-81050826D01*
X136770826Y-80894620D01*
X136897534Y-80713662D01*
X136990894Y-80513450D01*
X137048070Y-80300068D01*
X137067323Y-80080000D01*
X137048070Y-79859932D01*
X136990894Y-79646550D01*
X136897534Y-79446339D01*
X136770826Y-79265380D01*
X136614620Y-79109174D01*
X136614616Y-79109171D01*
X136614615Y-79109170D01*
X136433666Y-78982468D01*
X136433658Y-78982464D01*
X136304811Y-78922382D01*
X136252371Y-78876210D01*
X136233219Y-78809017D01*
X136253435Y-78742135D01*
X136304811Y-78697618D01*
X136310802Y-78694824D01*
X136433662Y-78637534D01*
X136614620Y-78510826D01*
X136770826Y-78354620D01*
X136897534Y-78173662D01*
X136990894Y-77973450D01*
X137048070Y-77760068D01*
X137067323Y-77540000D01*
X137048070Y-77319932D01*
X136990894Y-77106550D01*
X136897534Y-76906339D01*
X136770826Y-76725380D01*
X136614620Y-76569174D01*
X136614616Y-76569171D01*
X136614615Y-76569170D01*
X136433666Y-76442468D01*
X136433658Y-76442464D01*
X136304811Y-76382382D01*
X136252371Y-76336210D01*
X136233219Y-76269017D01*
X136253435Y-76202135D01*
X136304811Y-76157618D01*
X136310802Y-76154824D01*
X136433662Y-76097534D01*
X136614620Y-75970826D01*
X136770826Y-75814620D01*
X136897534Y-75633662D01*
X136990894Y-75433450D01*
X137048070Y-75220068D01*
X137067323Y-75000000D01*
X137048070Y-74779932D01*
X136990894Y-74566550D01*
X136897534Y-74366339D01*
X136837075Y-74279994D01*
X139065738Y-74279994D01*
X139065738Y-74280005D01*
X139084753Y-74509484D01*
X139141282Y-74732714D01*
X139233782Y-74943594D01*
X139359728Y-75136370D01*
X139359731Y-75136373D01*
X139515692Y-75305792D01*
X139632591Y-75396778D01*
X139701459Y-75450380D01*
X139700476Y-75451641D01*
X139741183Y-75499349D01*
X139750600Y-75568581D01*
X139721092Y-75631914D01*
X139701136Y-75649205D01*
X139701459Y-75649620D01*
X139515694Y-75794206D01*
X139515689Y-75794211D01*
X139359728Y-75963629D01*
X139233782Y-76156405D01*
X139141282Y-76367285D01*
X139084753Y-76590515D01*
X139065738Y-76819994D01*
X139065738Y-76820005D01*
X139084753Y-77049484D01*
X139141282Y-77272714D01*
X139233782Y-77483594D01*
X139359728Y-77676370D01*
X139359731Y-77676373D01*
X139515692Y-77845792D01*
X139632591Y-77936778D01*
X139701459Y-77990380D01*
X139700570Y-77991521D01*
X139741632Y-78039624D01*
X139751063Y-78108855D01*
X139721568Y-78172194D01*
X139701429Y-78189650D01*
X139701733Y-78190040D01*
X139516039Y-78334571D01*
X139516029Y-78334580D01*
X139360126Y-78503937D01*
X139234224Y-78696644D01*
X139141757Y-78907446D01*
X139090464Y-79109999D01*
X139090464Y-79110000D01*
X140026988Y-79110000D01*
X139994075Y-79167007D01*
X139960000Y-79294174D01*
X139960000Y-79425826D01*
X139994075Y-79552993D01*
X140026988Y-79610000D01*
X139090464Y-79610000D01*
X139141757Y-79812553D01*
X139234224Y-80023355D01*
X139360126Y-80216062D01*
X139516029Y-80385419D01*
X139516039Y-80385428D01*
X139701733Y-80529960D01*
X139700789Y-80531172D01*
X139741639Y-80579043D01*
X139751060Y-80648274D01*
X139721556Y-80711609D01*
X139701181Y-80729263D01*
X139701459Y-80729620D01*
X139515694Y-80874206D01*
X139515689Y-80874211D01*
X139359728Y-81043629D01*
X139233782Y-81236405D01*
X139141282Y-81447285D01*
X139084753Y-81670515D01*
X139065738Y-81899994D01*
X139065738Y-81900005D01*
X139084753Y-82129484D01*
X139141282Y-82352714D01*
X139233782Y-82563594D01*
X139359728Y-82756370D01*
X139359731Y-82756373D01*
X139515692Y-82925792D01*
X139632591Y-83016778D01*
X139701459Y-83070380D01*
X139700476Y-83071641D01*
X139741183Y-83119349D01*
X139750600Y-83188581D01*
X139721092Y-83251914D01*
X139701136Y-83269205D01*
X139701459Y-83269620D01*
X139515694Y-83414206D01*
X139515689Y-83414211D01*
X139359728Y-83583629D01*
X139233782Y-83776405D01*
X139141282Y-83987285D01*
X139084753Y-84210515D01*
X139065738Y-84439994D01*
X139065738Y-84440005D01*
X139084753Y-84669484D01*
X139141282Y-84892714D01*
X139233782Y-85103594D01*
X139359728Y-85296370D01*
X139359731Y-85296373D01*
X139515692Y-85465792D01*
X139632591Y-85556778D01*
X139701459Y-85610380D01*
X139700476Y-85611641D01*
X139741183Y-85659349D01*
X139750600Y-85728581D01*
X139721092Y-85791914D01*
X139701136Y-85809205D01*
X139701459Y-85809620D01*
X139515694Y-85954206D01*
X139515689Y-85954211D01*
X139359728Y-86123629D01*
X139233782Y-86316405D01*
X139141282Y-86527285D01*
X139084753Y-86750515D01*
X139065738Y-86979994D01*
X139065738Y-86980005D01*
X139084753Y-87209484D01*
X139141282Y-87432714D01*
X139233782Y-87643594D01*
X139359728Y-87836370D01*
X139359731Y-87836373D01*
X139515692Y-88005792D01*
X139632591Y-88096778D01*
X139701459Y-88150380D01*
X139700476Y-88151641D01*
X139741183Y-88199349D01*
X139750600Y-88268581D01*
X139721092Y-88331914D01*
X139701136Y-88349205D01*
X139701459Y-88349620D01*
X139515694Y-88494206D01*
X139515689Y-88494211D01*
X139359728Y-88663629D01*
X139233782Y-88856405D01*
X139141282Y-89067285D01*
X139084753Y-89290515D01*
X139065738Y-89519994D01*
X139065738Y-89520005D01*
X139084753Y-89749484D01*
X139141282Y-89972714D01*
X139233782Y-90183594D01*
X139359728Y-90376370D01*
X139359731Y-90376373D01*
X139515692Y-90545792D01*
X139629139Y-90634091D01*
X139679707Y-90673450D01*
X139697411Y-90687229D01*
X139899931Y-90796828D01*
X140013025Y-90835653D01*
X140117725Y-90871597D01*
X140117727Y-90871597D01*
X140117729Y-90871598D01*
X140344863Y-90909500D01*
X140344864Y-90909500D01*
X140575136Y-90909500D01*
X140575137Y-90909500D01*
X140802271Y-90871598D01*
X141020069Y-90796828D01*
X141222589Y-90687229D01*
X141404308Y-90545792D01*
X141560269Y-90376373D01*
X141686217Y-90183595D01*
X141778717Y-89972716D01*
X141835246Y-89749488D01*
X141854262Y-89520000D01*
X141835246Y-89290512D01*
X141778717Y-89067284D01*
X141686217Y-88856405D01*
X141560271Y-88663629D01*
X141423099Y-88514621D01*
X141404308Y-88494208D01*
X141222589Y-88352771D01*
X141222590Y-88352771D01*
X141218541Y-88349620D01*
X141219525Y-88348354D01*
X141178824Y-88300670D01*
X141169396Y-88231439D01*
X141198893Y-88168102D01*
X141218865Y-88150796D01*
X141218541Y-88150380D01*
X141255174Y-88121866D01*
X141404308Y-88005792D01*
X141560269Y-87836373D01*
X141686217Y-87643595D01*
X141778717Y-87432716D01*
X141835246Y-87209488D01*
X141854262Y-86980000D01*
X141835246Y-86750512D01*
X141778717Y-86527284D01*
X141686217Y-86316405D01*
X141560271Y-86123629D01*
X141423099Y-85974621D01*
X141404308Y-85954208D01*
X141222589Y-85812771D01*
X141222590Y-85812771D01*
X141218541Y-85809620D01*
X141219525Y-85808354D01*
X141178824Y-85760670D01*
X141169396Y-85691439D01*
X141198893Y-85628102D01*
X141218865Y-85610796D01*
X141218541Y-85610380D01*
X141255174Y-85581866D01*
X141404308Y-85465792D01*
X141560269Y-85296373D01*
X141686217Y-85103595D01*
X141778717Y-84892716D01*
X141835246Y-84669488D01*
X141854262Y-84440000D01*
X141835246Y-84210512D01*
X141778717Y-83987284D01*
X141686217Y-83776405D01*
X141560271Y-83583629D01*
X141423099Y-83434621D01*
X141404308Y-83414208D01*
X141222589Y-83272771D01*
X141222590Y-83272771D01*
X141218541Y-83269620D01*
X141219525Y-83268354D01*
X141178824Y-83220670D01*
X141169396Y-83151439D01*
X141198893Y-83088102D01*
X141218865Y-83070796D01*
X141218541Y-83070380D01*
X141255174Y-83041866D01*
X141404308Y-82925792D01*
X141560269Y-82756373D01*
X141686217Y-82563595D01*
X141778717Y-82352716D01*
X141835246Y-82129488D01*
X141854262Y-81900000D01*
X141835246Y-81670512D01*
X141778717Y-81447284D01*
X141686217Y-81236405D01*
X141560271Y-81043629D01*
X141423099Y-80894621D01*
X141404308Y-80874208D01*
X141222589Y-80732771D01*
X141222590Y-80732771D01*
X141218541Y-80729620D01*
X141219428Y-80728480D01*
X141178363Y-80680366D01*
X141168938Y-80611135D01*
X141198437Y-80547798D01*
X141218572Y-80530352D01*
X141218267Y-80529960D01*
X141403960Y-80385428D01*
X141403970Y-80385419D01*
X141559873Y-80216062D01*
X141685775Y-80023355D01*
X141778242Y-79812553D01*
X141829535Y-79610000D01*
X140893012Y-79610000D01*
X140925925Y-79552993D01*
X140960000Y-79425826D01*
X140960000Y-79294174D01*
X140925925Y-79167007D01*
X140893012Y-79110000D01*
X141829536Y-79110000D01*
X141829535Y-79109999D01*
X141778242Y-78907446D01*
X141685775Y-78696644D01*
X141559873Y-78503937D01*
X141403970Y-78334580D01*
X141403960Y-78334571D01*
X141218267Y-78190040D01*
X141219209Y-78188829D01*
X141178355Y-78140947D01*
X141168941Y-78071714D01*
X141198450Y-78008382D01*
X141218820Y-77990738D01*
X141218541Y-77990380D01*
X141255174Y-77961866D01*
X141404308Y-77845792D01*
X141560269Y-77676373D01*
X141686217Y-77483595D01*
X141778717Y-77272716D01*
X141835246Y-77049488D01*
X141854262Y-76820000D01*
X141835246Y-76590512D01*
X141778717Y-76367284D01*
X141686217Y-76156405D01*
X141560271Y-75963629D01*
X141423099Y-75814621D01*
X141404308Y-75794208D01*
X141222589Y-75652771D01*
X141222590Y-75652771D01*
X141218541Y-75649620D01*
X141219525Y-75648354D01*
X141178824Y-75600670D01*
X141169396Y-75531439D01*
X141198893Y-75468102D01*
X141218865Y-75450796D01*
X141218541Y-75450380D01*
X141255174Y-75421866D01*
X141404308Y-75305792D01*
X141560269Y-75136373D01*
X141686217Y-74943595D01*
X141778717Y-74732716D01*
X141835246Y-74509488D01*
X141854262Y-74280000D01*
X141835246Y-74050512D01*
X141778717Y-73827284D01*
X141686217Y-73616405D01*
X141681615Y-73609361D01*
X141560271Y-73423629D01*
X141533355Y-73394390D01*
X141404308Y-73254208D01*
X141336036Y-73201070D01*
X141222591Y-73112772D01*
X141020069Y-73003172D01*
X141020061Y-73003169D01*
X140802274Y-72928402D01*
X140592785Y-72893445D01*
X140575137Y-72890500D01*
X140344863Y-72890500D01*
X140327215Y-72893445D01*
X140117725Y-72928402D01*
X139899938Y-73003169D01*
X139899930Y-73003172D01*
X139697408Y-73112772D01*
X139515694Y-73254206D01*
X139515689Y-73254211D01*
X139359728Y-73423629D01*
X139233782Y-73616405D01*
X139141282Y-73827285D01*
X139084753Y-74050515D01*
X139065738Y-74279994D01*
X136837075Y-74279994D01*
X136770826Y-74185380D01*
X136614620Y-74029174D01*
X136614616Y-74029171D01*
X136614615Y-74029170D01*
X136433666Y-73902468D01*
X136433658Y-73902464D01*
X136304811Y-73842382D01*
X136252371Y-73796210D01*
X136233219Y-73729017D01*
X136253435Y-73662135D01*
X136304811Y-73617618D01*
X136310802Y-73614824D01*
X136433662Y-73557534D01*
X136614620Y-73430826D01*
X136770826Y-73274620D01*
X136897534Y-73093662D01*
X136990894Y-72893450D01*
X137048070Y-72680068D01*
X137067323Y-72460000D01*
X137048070Y-72239932D01*
X136990894Y-72026550D01*
X136897534Y-71826339D01*
X136770826Y-71645380D01*
X136614620Y-71489174D01*
X136614616Y-71489171D01*
X136614615Y-71489170D01*
X136433666Y-71362468D01*
X136433658Y-71362464D01*
X136304811Y-71302382D01*
X136252371Y-71256210D01*
X136233219Y-71189017D01*
X136253435Y-71122135D01*
X136304811Y-71077618D01*
X136310802Y-71074824D01*
X136433662Y-71017534D01*
X136614620Y-70890826D01*
X136770826Y-70734620D01*
X136897534Y-70553662D01*
X136990894Y-70353450D01*
X137048070Y-70140068D01*
X137067323Y-69920000D01*
X137048070Y-69699932D01*
X136990894Y-69486550D01*
X136897534Y-69286339D01*
X136770826Y-69105380D01*
X136614620Y-68949174D01*
X136614616Y-68949171D01*
X136614615Y-68949170D01*
X136433666Y-68822468D01*
X136433658Y-68822464D01*
X136304811Y-68762382D01*
X136252371Y-68716210D01*
X136233219Y-68649017D01*
X136253435Y-68582135D01*
X136304811Y-68537618D01*
X136310802Y-68534824D01*
X136433662Y-68477534D01*
X136614620Y-68350826D01*
X136770826Y-68194620D01*
X136897534Y-68013662D01*
X136990894Y-67813450D01*
X137048070Y-67600068D01*
X137067323Y-67380000D01*
X137048070Y-67159932D01*
X136990894Y-66946550D01*
X136897534Y-66746339D01*
X136770826Y-66565380D01*
X136614620Y-66409174D01*
X136614616Y-66409171D01*
X136614615Y-66409170D01*
X136433666Y-66282468D01*
X136433658Y-66282464D01*
X136304811Y-66222382D01*
X136252371Y-66176210D01*
X136233219Y-66109017D01*
X136253435Y-66042135D01*
X136304811Y-65997618D01*
X136310802Y-65994824D01*
X136433662Y-65937534D01*
X136614620Y-65810826D01*
X136770826Y-65654620D01*
X136897534Y-65473662D01*
X136990894Y-65273450D01*
X137048070Y-65060068D01*
X137067323Y-64840000D01*
X137048070Y-64619932D01*
X136990894Y-64406550D01*
X136897534Y-64206339D01*
X136770826Y-64025380D01*
X136614620Y-63869174D01*
X136614616Y-63869171D01*
X136614615Y-63869170D01*
X136433666Y-63742468D01*
X136433662Y-63742466D01*
X136433660Y-63742465D01*
X136233450Y-63649106D01*
X136233447Y-63649105D01*
X136233445Y-63649104D01*
X136020070Y-63591930D01*
X136020062Y-63591929D01*
X135800002Y-63572677D01*
X135799998Y-63572677D01*
X135579937Y-63591929D01*
X135579929Y-63591930D01*
X135366554Y-63649104D01*
X135366548Y-63649107D01*
X135166340Y-63742465D01*
X135166338Y-63742466D01*
X134985377Y-63869175D01*
X134829175Y-64025377D01*
X134702466Y-64206338D01*
X134702465Y-64206340D01*
X134609107Y-64406548D01*
X134609104Y-64406554D01*
X134551930Y-64619929D01*
X134551929Y-64619937D01*
X134532677Y-64839997D01*
X127600000Y-64839997D01*
X127600000Y-55024500D01*
X127619685Y-54957461D01*
X127672489Y-54911706D01*
X127724000Y-54900500D01*
X155375500Y-54900500D01*
X155442539Y-54920185D01*
G37*
%TD.AperFunction*%
%TD*%
M02*
