%TF.GenerationSoftware,KiCad,Pcbnew,8.0.3*%
%TF.CreationDate,2024-07-11T16:06:48-07:00*%
%TF.ProjectId,RomiEnvironDetector,526f6d69-456e-4766-9972-6f6e44657465,rev?*%
%TF.SameCoordinates,Original*%
%TF.FileFunction,Copper,L1,Top*%
%TF.FilePolarity,Positive*%
%FSLAX46Y46*%
G04 Gerber Fmt 4.6, Leading zero omitted, Abs format (unit mm)*
G04 Created by KiCad (PCBNEW 8.0.3) date 2024-07-11 16:06:48*
%MOMM*%
%LPD*%
G01*
G04 APERTURE LIST*
%TA.AperFunction,ComponentPad*%
%ADD10C,1.778000*%
%TD*%
%TA.AperFunction,ComponentPad*%
%ADD11C,3.200000*%
%TD*%
%TA.AperFunction,ComponentPad*%
%ADD12C,1.524000*%
%TD*%
%TA.AperFunction,Conductor*%
%ADD13C,0.200000*%
%TD*%
G04 APERTURE END LIST*
D10*
%TO.P,BME688,1,VIN*%
%TO.N,Net-(BME688-VIN)*%
X140460000Y-74280000D03*
%TO.P,BME688,2,3Vo*%
%TO.N,unconnected-(BME688-3Vo-Pad2)*%
X140460000Y-76820000D03*
%TO.P,BME688,3,GND*%
%TO.N,GND*%
X140460000Y-79360000D03*
%TO.P,BME688,4,SCK*%
%TO.N,Net-(BME688-SCK)*%
X140460000Y-81900000D03*
%TO.P,BME688,5,SD0*%
%TO.N,unconnected-(BME688-SD0-Pad5)*%
X140460000Y-84440000D03*
%TO.P,BME688,6,SDI*%
%TO.N,Net-(BME688-SDI)*%
X140460000Y-86980000D03*
%TO.P,BME688,7,CS*%
%TO.N,unconnected-(BME688-CS-Pad7)*%
X140460000Y-89520000D03*
D11*
%TO.P,BME688,P$1*%
%TO.N,N/C*%
X153160000Y-71740000D03*
X153160000Y-92060000D03*
%TD*%
D12*
%TO.P,NodeMCU-ESP8266,1,A0*%
%TO.N,unconnected-(NodeMCU-ESP8266-A0-Pad1)*%
X107860000Y-64840000D03*
%TO.P,NodeMCU-ESP8266,2,G*%
%TO.N,unconnected-(NodeMCU-ESP8266-G-Pad2)*%
X107860000Y-67380000D03*
%TO.P,NodeMCU-ESP8266,3,VU*%
%TO.N,unconnected-(NodeMCU-ESP8266-VU-Pad3)*%
X107860000Y-69920000D03*
%TO.P,NodeMCU-ESP8266,4,S3*%
%TO.N,unconnected-(NodeMCU-ESP8266-S3-Pad4)*%
X107860000Y-72460000D03*
%TO.P,NodeMCU-ESP8266,5,S2*%
%TO.N,unconnected-(NodeMCU-ESP8266-S2-Pad5)*%
X107860000Y-75000000D03*
%TO.P,NodeMCU-ESP8266,6,S1*%
%TO.N,unconnected-(NodeMCU-ESP8266-S1-Pad6)*%
X107860000Y-77540000D03*
%TO.P,NodeMCU-ESP8266,7,SC*%
%TO.N,unconnected-(NodeMCU-ESP8266-SC-Pad7)*%
X107860000Y-80080000D03*
%TO.P,NodeMCU-ESP8266,8,S0*%
%TO.N,unconnected-(NodeMCU-ESP8266-S0-Pad8)*%
X107860000Y-82620000D03*
%TO.P,NodeMCU-ESP8266,9,SK*%
%TO.N,unconnected-(NodeMCU-ESP8266-SK-Pad9)*%
X107860000Y-85160000D03*
%TO.P,NodeMCU-ESP8266,10,G*%
%TO.N,unconnected-(NodeMCU-ESP8266-G-Pad10)*%
X107860000Y-87700000D03*
%TO.P,NodeMCU-ESP8266,11,3V*%
%TO.N,unconnected-(NodeMCU-ESP8266-3V-Pad11)*%
X107860000Y-90240000D03*
%TO.P,NodeMCU-ESP8266,12,EN*%
%TO.N,unconnected-(NodeMCU-ESP8266-EN-Pad12)*%
X107860000Y-92780000D03*
%TO.P,NodeMCU-ESP8266,13,RST*%
%TO.N,unconnected-(NodeMCU-ESP8266-RST-Pad13)*%
X107860000Y-95320000D03*
%TO.P,NodeMCU-ESP8266,14,G*%
%TO.N,unconnected-(NodeMCU-ESP8266-G-Pad14)*%
X107860000Y-97860000D03*
%TO.P,NodeMCU-ESP8266,15,VIN*%
%TO.N,unconnected-(NodeMCU-ESP8266-VIN-Pad15)*%
X107860000Y-100400000D03*
%TO.P,NodeMCU-ESP8266,16,3V*%
%TO.N,Net-(BME688-VIN)*%
X135800000Y-100400000D03*
%TO.P,NodeMCU-ESP8266,17,G*%
%TO.N,GND*%
X135800000Y-97860000D03*
%TO.P,NodeMCU-ESP8266,18,TX*%
%TO.N,unconnected-(NodeMCU-ESP8266-TX-Pad18)*%
X135800000Y-95320000D03*
%TO.P,NodeMCU-ESP8266,19,RX*%
%TO.N,unconnected-(NodeMCU-ESP8266-RX-Pad19)*%
X135800000Y-92780000D03*
%TO.P,NodeMCU-ESP8266,20,D8*%
%TO.N,unconnected-(NodeMCU-ESP8266-D8-Pad20)*%
X135800000Y-90240000D03*
%TO.P,NodeMCU-ESP8266,21,D7*%
%TO.N,unconnected-(NodeMCU-ESP8266-D7-Pad21)*%
X135800000Y-87700000D03*
%TO.P,NodeMCU-ESP8266,22,D6*%
%TO.N,unconnected-(NodeMCU-ESP8266-D6-Pad22)*%
X135800000Y-85160000D03*
%TO.P,NodeMCU-ESP8266,23,D5*%
%TO.N,unconnected-(NodeMCU-ESP8266-D5-Pad23)*%
X135800000Y-82620000D03*
%TO.P,NodeMCU-ESP8266,24,G*%
%TO.N,unconnected-(NodeMCU-ESP8266-G-Pad24)*%
X135800000Y-80080000D03*
%TO.P,NodeMCU-ESP8266,25,3V*%
%TO.N,unconnected-(NodeMCU-ESP8266-3V-Pad25)*%
X135800000Y-77540000D03*
%TO.P,NodeMCU-ESP8266,26,D4*%
%TO.N,unconnected-(NodeMCU-ESP8266-D4-Pad26)*%
X135800000Y-75000000D03*
%TO.P,NodeMCU-ESP8266,27,D3*%
%TO.N,unconnected-(NodeMCU-ESP8266-D3-Pad27)*%
X135800000Y-72460000D03*
%TO.P,NodeMCU-ESP8266,28,D2*%
%TO.N,Net-(BME688-SDI)*%
X135800000Y-69920000D03*
%TO.P,NodeMCU-ESP8266,29,D1*%
%TO.N,Net-(BME688-SCK)*%
X135800000Y-67380000D03*
%TO.P,NodeMCU-ESP8266,30,D0*%
%TO.N,unconnected-(NodeMCU-ESP8266-D0-Pad30)*%
X135800000Y-64840000D03*
%TD*%
D13*
%TO.N,Net-(BME688-VIN)*%
X143000000Y-76820000D02*
X140460000Y-74280000D01*
X143000000Y-93200000D02*
X143000000Y-76820000D01*
X135800000Y-100400000D02*
X143000000Y-93200000D01*
%TO.N,Net-(BME688-SDI)*%
X137400000Y-71520000D02*
X137400000Y-83920000D01*
X135800000Y-69920000D02*
X137400000Y-71520000D01*
X137400000Y-83920000D02*
X140460000Y-86980000D01*
%TO.N,Net-(BME688-SCK)*%
X138200000Y-79640000D02*
X140460000Y-81900000D01*
X135800000Y-67380000D02*
X138200000Y-69780000D01*
X138200000Y-69780000D02*
X138200000Y-79640000D01*
%TD*%
M02*
